<svg width="103" height="103" viewBox="0 0 103 103" fill="none" xmlns="http://www.w3.org/2000/svg">
<path d="M51.745 101.606C79.6057 101.606 102.191 79.0206 102.191 51.16C102.191 23.2993 79.6057 0.713745 51.745 0.713745C23.8844 0.713745 1.29883 23.2993 1.29883 51.16C1.29883 79.0206 23.8844 101.606 51.745 101.606Z" fill="white"/>
<path d="M51.7459 102.32C23.5394 102.32 0.585938 79.3664 0.585938 51.1599C0.585938 22.9535 23.5394 0 51.7459 0C79.9524 0 102.906 22.9535 102.906 51.1599C102.906 79.3664 79.9524 102.32 51.7459 102.32ZM51.7459 1.42745C24.3245 1.42745 2.01339 23.7386 2.01339 51.1599C2.01339 78.5813 24.3245 100.892 51.7459 100.892C79.1673 100.892 101.478 78.5813 101.478 51.1599C101.478 23.7386 79.1673 1.42745 51.7459 1.42745Z" fill="#292F36"/>
<path d="M58.9398 5.83827C59.2824 5.86682 59.5821 5.88109 59.8248 5.88109L59.7963 6.10949C59.3966 6.16658 59.054 6.46635 58.7828 7.03733L55.3854 13.832L55.2855 13.8177L55.1999 13.8035L53.0444 6.22368C52.9017 5.72407 52.659 5.45286 52.3164 5.41003L52.345 5.18164C52.659 5.23874 53.073 5.28156 53.5868 5.33866C54.2577 5.39576 54.7573 5.43858 55.0857 5.43858L55.0571 5.66697C54.7573 5.6527 54.5432 5.66697 54.4148 5.7098C54.2863 5.75262 54.2149 5.86682 54.2006 6.00956C54.1864 6.13803 54.2149 6.3236 54.2863 6.56627L55.8708 12.3617L58.2261 7.62259C58.4259 7.23717 58.5258 6.92313 58.5544 6.69474C58.5829 6.45207 58.5116 6.26651 58.3545 6.13803C58.1975 6.00956 57.9406 5.93819 57.598 5.89537L57.6265 5.66697C58.0405 5.73835 58.483 5.79545 58.9398 5.83827Z" fill="#292F36"/>
<path d="M68.5318 8.85028C68.3891 8.85028 68.2749 8.90737 68.1893 9.02157C68.1036 9.13577 68.0037 9.32134 67.9038 9.59255L65.8625 15.0169C65.7626 15.2881 65.7055 15.5022 65.7055 15.645C65.7055 15.7877 65.7483 15.9019 65.8482 15.9875C65.9482 16.0732 66.1337 16.1731 66.3907 16.2873L66.305 16.5014C65.9767 16.3587 65.5199 16.1731 64.9347 15.9447C64.3066 15.7021 63.8355 15.545 63.5215 15.4451L63.6071 15.231C63.8783 15.3166 64.0782 15.3595 64.2067 15.3595C64.3351 15.3595 64.4636 15.3024 64.5493 15.1882C64.6349 15.074 64.7348 14.8884 64.8347 14.6172L66.876 9.19286C66.9759 8.92165 67.033 8.70753 67.033 8.56479C67.033 8.42204 66.9902 8.30784 66.8903 8.2222C66.7904 8.13655 66.6048 8.03663 66.3478 7.92243L66.4335 7.70831C66.7333 7.83678 67.19 8.02235 67.8181 8.26502C68.4034 8.49341 68.8744 8.65043 69.217 8.75035L69.1314 8.96447C68.8744 8.87883 68.6746 8.836 68.5318 8.85028Z" fill="#292F36"/>
<path d="M81.2365 16.4014C81.0937 16.3729 80.951 16.4157 80.8225 16.5014C80.694 16.587 80.537 16.7583 80.3657 17.001L76.2261 22.6109L76.012 22.4538L76.5687 13.4323L72.9002 18.3999C72.7289 18.6425 72.6147 18.8424 72.5576 18.9994C72.5005 19.1564 72.529 19.2992 72.6004 19.4419C72.6718 19.5847 72.8431 19.7417 73.0857 19.9415L72.943 20.1271C72.7289 19.9415 72.4148 19.6989 72.0009 19.3848C71.6297 19.1136 71.33 18.8995 71.1016 18.771L71.2443 18.5854C71.4727 18.7425 71.6583 18.8281 71.801 18.8424C71.9438 18.8709 72.0865 18.8281 72.215 18.7425C72.3434 18.6425 72.5005 18.4855 72.6718 18.2429L76.0406 13.675C76.2118 13.4323 76.326 13.2468 76.3689 13.1183C76.4117 12.9898 76.3974 12.8614 76.326 12.7472C76.2547 12.633 76.1119 12.4902 75.8835 12.3046L76.0263 12.1191C76.2118 12.2904 76.4973 12.5188 76.8827 12.79C77.1682 13.0041 77.4109 13.1754 77.6393 13.3039L77.1825 20.8694L80.1516 16.844C80.3229 16.6013 80.4514 16.4014 80.4942 16.2444C80.537 16.0874 80.5228 15.9447 80.4514 15.8019C80.38 15.6592 80.2087 15.4879 79.966 15.3023L80.1088 15.1167C80.3229 15.3023 80.6369 15.545 81.0509 15.859C81.422 16.1302 81.7218 16.3443 81.9502 16.4728L81.8075 16.6584C81.5648 16.5156 81.3792 16.4157 81.2365 16.4014Z" fill="#292F36"/>
<path d="M86.0187 22.8392C86.3899 22.568 86.7753 22.2682 87.1892 21.8971C87.5461 22.4395 88.1742 23.3388 89.0735 24.6093C89.9728 25.8654 90.6151 26.7504 91.0005 27.2643C90.5152 27.5498 90.1013 27.8068 89.7301 28.0637C89.4161 28.2921 89.1591 28.4919 88.9736 28.6489L88.8165 28.4348C89.2733 28.0351 89.5874 27.7068 89.7729 27.4642C89.9585 27.2215 90.0299 26.9646 90.0156 26.6933C90.0013 26.4221 89.83 26.0938 89.5588 25.6941L89.1877 25.1802L83.7776 29.0344C83.5207 29.2199 83.3351 29.3912 83.2495 29.5197C83.1638 29.6482 83.1353 29.8052 83.1924 29.9765C83.2352 30.1335 83.3637 30.3619 83.5492 30.6474L83.3637 30.7901C83.1496 30.4475 82.8212 29.9622 82.393 29.377C81.9362 28.7346 81.5936 28.2778 81.3652 27.9923L81.5508 27.8496C81.7649 28.1208 81.9362 28.3064 82.079 28.4063C82.2217 28.5062 82.3645 28.5348 82.5215 28.4919C82.6785 28.4491 82.8926 28.3349 83.1496 28.1493L88.5596 24.2952L88.1885 23.7813C87.903 23.3816 87.646 23.139 87.4034 23.0248C87.1607 22.9106 86.8895 22.8963 86.604 22.9962C86.3185 23.0962 85.9045 23.2817 85.3764 23.5815L85.2194 23.3674C85.4335 23.2532 85.6904 23.0819 86.0187 22.8392Z" fill="#292F36"/>
<path d="M88.7586 42.6524L88.5302 42.7237C88.4445 42.4097 88.3303 42.01 88.159 41.5247C87.9449 40.8966 87.7736 40.4255 87.6452 40.1115L87.8736 40.0401C87.9735 40.3113 88.0877 40.5112 88.1733 40.6111C88.2732 40.711 88.4017 40.7396 88.5445 40.6825C88.6729 40.6396 88.83 40.5397 89.0155 40.3827L90.6 39.0837L89.7007 36.4144L88.3732 36.3573C87.9449 36.3287 87.6166 36.3573 87.3882 36.4429C87.1598 36.5286 87.0171 36.657 86.96 36.8426C86.9172 37.0282 86.9457 37.2994 87.0456 37.6277L86.8172 37.6991C86.703 37.2709 86.5603 36.8426 86.4176 36.4144C86.3034 36.0861 86.2034 35.8149 86.1035 35.6007L86.3319 35.5294C86.5318 35.8719 86.96 36.0575 87.5881 36.0718L95.1821 36.4144L95.2392 36.5857L89.1868 41.6246C88.8157 41.9814 88.6729 42.3098 88.7586 42.6524ZM93.7118 36.5857L89.9719 36.4287L90.8141 38.941L93.7118 36.5857Z" fill="#292F36"/>
<path d="M89.8001 53.5724C89.9428 53.5153 90.0142 53.4439 90.0142 53.344C90.0142 53.2869 89.9999 53.2441 89.9714 53.2013C89.9428 53.1584 89.8857 53.0728 89.8001 52.9586C89.586 52.6874 89.429 52.4019 89.3148 52.1164C89.2006 51.8309 89.1435 51.5026 89.1435 51.1457C89.1292 50.3464 89.2862 49.6612 89.6003 49.0759C89.9286 48.4907 90.3854 48.0481 91.0134 47.7341C91.6272 47.4201 92.3695 47.263 93.2403 47.2488C94.1396 47.2345 94.9247 47.3772 95.5956 47.6913C96.2665 48.0053 96.7946 48.4336 97.1658 49.0045C97.5369 49.5755 97.7367 50.2179 97.7367 50.9316C97.7367 51.2456 97.7082 51.5311 97.6511 51.7738C97.594 52.0165 97.5084 52.2306 97.4084 52.4162C97.3085 52.6017 97.18 52.8158 97.0087 53.0442C96.9374 53.1442 96.8945 53.2298 96.8945 53.2869C96.8945 53.4297 97.1372 53.5296 97.6083 53.5724V53.8436C97.1087 53.8151 96.2094 53.8151 94.9247 53.8436V53.5724C95.3386 53.501 95.6812 53.4154 95.9524 53.3297C96.2236 53.2441 96.452 53.1156 96.6519 52.9586C96.9231 52.7302 97.1515 52.4304 97.3085 52.0593C97.4655 51.6882 97.5369 51.317 97.5369 50.9173C97.5226 50.4034 97.3513 49.9609 97.0087 49.5755C96.6662 49.1901 96.1808 48.9046 95.567 48.6905C94.9389 48.4907 94.2252 48.3907 93.3973 48.405C92.4552 48.4193 91.6986 48.5335 91.0991 48.7476C90.4996 48.9617 90.0713 49.2758 89.7858 49.6897C89.5003 50.1037 89.3719 50.6318 89.3861 51.2742C89.4004 51.7453 89.5289 52.1449 89.7715 52.4875C89.8715 52.6303 89.9571 52.7159 90.057 52.7587C90.1427 52.8016 90.2712 52.8158 90.4282 52.8158L91.5559 52.8016C91.8842 52.8016 92.1126 52.7587 92.2696 52.7016C92.4123 52.6445 92.5265 52.5304 92.5694 52.3591C92.6265 52.202 92.655 51.9451 92.655 51.6025H92.8834C92.8691 51.9879 92.8549 52.5304 92.8691 53.2584C92.8834 53.8008 92.8977 54.2147 92.9262 54.4717H92.6978C92.6836 54.2861 92.6407 54.1577 92.5979 54.0863C92.5551 54.0149 92.4552 53.9578 92.3267 53.9293C92.1982 53.9007 91.9841 53.8864 91.6843 53.9007L89.3719 53.9435V53.7151C89.5003 53.658 89.6574 53.6295 89.8001 53.5724Z" fill="#292F36"/>
<path d="M88.1025 65.72C87.6885 65.5915 87.2032 65.463 86.6465 65.3488C86.8321 64.8492 87.1033 64.007 87.4887 62.8079C87.9455 61.3805 88.2738 60.2956 88.4736 59.5676L88.702 59.639C88.6306 59.9102 88.6021 60.1101 88.6021 60.2528C88.6164 60.3955 88.6735 60.4955 88.7877 60.5811C88.9019 60.6668 89.1017 60.7524 89.3729 60.8381L94.8972 62.5796C95.1827 62.6652 95.3825 62.708 95.5252 62.708C95.668 62.708 95.7822 62.6509 95.8678 62.5367C95.9535 62.4225 96.0391 62.237 96.1391 61.98L96.3674 62.0514C96.1105 62.7794 95.7679 63.85 95.3111 65.2774C94.9685 66.3623 94.7259 67.1474 94.6117 67.6185C94.1406 67.4186 93.7124 67.2473 93.3127 67.1331C93.0272 67.0475 92.7845 66.9761 92.6132 66.9476L92.6989 66.6906C93.1985 66.7905 93.5839 66.8334 93.8409 66.8334C94.0978 66.8334 94.3119 66.7477 94.4832 66.5764C94.6545 66.4194 94.7972 66.1339 94.9257 65.7485L95.2112 64.8207C95.2969 64.5494 95.3397 64.3496 95.3254 64.2211C95.3111 64.0927 95.2683 63.9785 95.1541 63.8928C95.0399 63.8072 94.8543 63.7215 94.5688 63.6359L91.9423 62.8079L91.7139 63.5502C91.5997 63.9214 91.6283 64.2069 91.8139 64.4067C91.9994 64.6065 92.1993 64.7493 92.4277 64.8492C92.6561 64.9491 92.7988 65.0205 92.8559 65.049L92.7703 65.306C92.4134 65.1632 92.0708 65.0348 91.7282 64.9349L91.2001 64.7778C90.8289 64.6636 90.2865 64.5066 89.6013 64.3496L89.687 64.0927C89.7441 64.1069 89.9296 64.1355 90.2437 64.2069C90.5577 64.2639 90.8289 64.2354 91.043 64.1212C91.2572 64.007 91.3999 63.7929 91.4998 63.4931L91.7282 62.7508L89.0446 61.9087C88.7591 61.823 88.5593 61.7802 88.4165 61.7802C88.2738 61.7802 88.1596 61.8373 88.0882 61.9515C88.0026 62.0657 87.9169 62.2512 87.8313 62.5225L87.5743 63.3361C87.4316 63.8072 87.3745 64.1783 87.4316 64.4495C87.4744 64.735 87.6172 64.9634 87.8598 65.1632C88.1025 65.3488 88.4736 65.5629 88.9732 65.7913L88.8876 66.0483C88.7163 65.9198 88.4451 65.8342 88.1025 65.72Z" fill="#292F36"/>
<path d="M84.0344 83.2348C84.0915 83.1064 84.0772 82.9779 84.0201 82.8494C83.963 82.7209 83.8203 82.5639 83.6062 82.3498L79.4094 78.3387C79.1953 78.1388 79.024 78.0104 78.8956 77.9533C78.7671 77.8962 78.6386 77.8962 78.5101 77.9533C78.3817 78.0104 78.2247 78.1388 78.0248 78.3387L77.8535 78.1816C78.1247 77.939 78.4673 77.5821 78.9098 77.1396C79.3666 76.6543 79.7092 76.2831 79.9233 76.0405L80.0946 76.1975C79.909 76.4116 79.7949 76.5829 79.7378 76.6971C79.6807 76.8256 79.6949 76.954 79.752 77.0825C79.8091 77.211 79.9519 77.368 80.166 77.5821L84.3627 81.5933C84.5768 81.7931 84.7481 81.9216 84.8766 81.9787C85.0051 82.0358 85.1335 82.0358 85.262 81.9787C85.3905 81.9216 85.5475 81.7931 85.7473 81.5933L85.9186 81.7503C85.676 81.9644 85.3191 82.3213 84.8623 82.8066C84.4198 83.2634 84.0915 83.6345 83.8631 83.9057L83.6918 83.7487C83.8631 83.5346 83.9773 83.3633 84.0344 83.2348Z" fill="#292F36"/>
<path d="M72.1429 91.9422C72.2285 91.8138 72.2428 91.6853 72.2142 91.5283C72.1857 91.3713 72.0858 91.1714 71.9288 90.9002L68.3887 84.8906L68.6171 84.7479L76.6965 88.7876L73.5703 83.4774C73.4133 83.2205 73.2848 83.0349 73.1564 82.935C73.0279 82.8351 72.8852 82.7923 72.7281 82.8065C72.5711 82.8208 72.357 82.9065 72.0858 83.0492L71.9573 82.8494C72.2142 82.7352 72.5568 82.5353 72.9993 82.2784C73.399 82.0357 73.6988 81.8501 73.9129 81.6931L74.0271 81.893C73.7987 82.0357 73.6417 82.1784 73.5703 82.3069C73.4847 82.4354 73.4704 82.5639 73.499 82.7209C73.5275 82.8779 73.6274 83.0777 73.7844 83.349L76.6679 88.2451C76.8106 88.5021 76.9391 88.6734 77.0533 88.759C77.1675 88.8447 77.2817 88.8875 77.4245 88.8589C77.5529 88.8304 77.7528 88.759 77.9954 88.6305L78.1096 88.8304C77.8812 88.9446 77.5672 89.1159 77.1532 89.3585C76.8535 89.5298 76.5965 89.7011 76.3824 89.8439L69.602 86.4608L72.1429 90.7717C72.2999 91.0287 72.4284 91.2142 72.5568 91.3142C72.671 91.4141 72.8138 91.4569 72.9851 91.4426C73.1564 91.4283 73.3705 91.3427 73.6417 91.2L73.7559 91.3998C73.499 91.514 73.1564 91.7138 72.7139 91.9708C72.3142 92.2134 72.0144 92.399 71.8003 92.556L71.6861 92.3562C71.9002 92.1992 72.0572 92.0564 72.1429 91.9422Z" fill="#292F36"/>
<path d="M64.2924 93.8123C64.3923 94.2549 64.5208 94.7402 64.6921 95.2541C64.0497 95.3683 62.9791 95.5967 61.466 95.9107C59.9529 96.239 58.8966 96.4817 58.2685 96.6387C58.1972 96.082 58.1258 95.5967 58.0259 95.1542C57.9402 94.7687 57.8689 94.4547 57.7832 94.2263L58.0401 94.1692C58.2257 94.7545 58.397 95.1684 58.554 95.4396C58.711 95.7109 58.9109 95.8822 59.1678 95.9678C59.4248 96.0534 59.7959 96.0392 60.267 95.9392L60.8808 95.8108L59.4819 89.3159C59.4105 89.0018 59.3391 88.7734 59.2392 88.645C59.1393 88.5165 59.0251 88.4308 58.8538 88.4166C58.6825 88.388 58.4256 88.4166 58.083 88.4737L58.0401 88.2453C58.4398 88.1882 59.0108 88.074 59.7245 87.917C60.4811 87.7457 61.0521 87.6172 61.4089 87.5173L61.4518 87.7457C61.1092 87.8313 60.8808 87.917 60.738 88.0026C60.5953 88.0883 60.5096 88.2167 60.4811 88.3737C60.4525 88.5308 60.4668 88.7734 60.5382 89.0875L61.9371 95.5824L62.5509 95.4539C63.022 95.354 63.3645 95.2112 63.5644 95.0257C63.7642 94.8401 63.8784 94.5974 63.907 94.2977C63.9355 93.9979 63.9213 93.5411 63.8499 92.9416L64.1068 92.8845C64.1496 93.1129 64.2067 93.4269 64.2924 93.8123Z" fill="#292F36"/>
<path d="M45.3495 89.8011C45.3923 89.3586 45.4066 88.859 45.4066 88.3022C45.9348 88.3736 46.8198 88.4593 48.0759 88.5735C49.5605 88.7019 50.6882 88.8019 51.459 88.8447L51.4447 89.0731C51.1592 89.0588 50.9594 89.0731 50.8309 89.1159C50.7025 89.1587 50.6025 89.2301 50.5454 89.3586C50.4883 89.487 50.4455 89.7012 50.417 89.9866L49.9031 95.7678C49.8745 96.0533 49.8888 96.2674 49.9174 96.4102C49.9459 96.5529 50.0316 96.6528 50.16 96.7099C50.2885 96.767 50.4883 96.8241 50.7596 96.8527L50.7453 97.0811C49.9887 96.9954 48.861 96.8812 47.3765 96.7528C46.2345 96.6528 45.4209 96.5958 44.9355 96.5672C45.0355 96.0676 45.1068 95.6108 45.1354 95.1968C45.1639 94.8971 45.1782 94.6544 45.1639 94.4688L45.4352 94.4974C45.4494 95.0113 45.478 95.3824 45.5494 95.6394C45.6065 95.8963 45.7349 96.0819 45.9348 96.2103C46.1203 96.3388 46.4344 96.4245 46.8341 96.453L47.8047 96.5386C48.0902 96.5672 48.2901 96.5529 48.4185 96.5244C48.547 96.4958 48.6469 96.4102 48.704 96.2817C48.7611 96.1532 48.8039 95.9391 48.8325 95.6536L49.0752 92.9129L48.3043 92.8415C47.9189 92.813 47.6477 92.8986 47.4907 93.127C47.3479 93.3554 47.2337 93.5838 47.1909 93.8265C47.1338 94.0692 47.1053 94.2262 47.091 94.2975L46.8198 94.269C46.8769 93.8836 46.9197 93.5267 46.9625 93.1699L47.0054 92.6132C47.0339 92.2135 47.0625 91.671 47.091 90.9573L47.3622 90.9859C47.3622 91.043 47.3765 91.2285 47.3765 91.5568C47.3908 91.8852 47.4621 92.1421 47.6334 92.3134C47.7905 92.499 48.0331 92.5989 48.3472 92.6274L49.118 92.6988L49.3607 89.901C49.3892 89.6155 49.3749 89.4014 49.3464 89.2586C49.3178 89.1302 49.2322 89.0302 49.1037 88.9732C48.9752 88.9161 48.7754 88.8732 48.5042 88.8447L47.6477 88.7733C47.1624 88.7305 46.7912 88.759 46.52 88.8732C46.2631 88.9731 46.0632 89.173 45.9205 89.4442C45.7777 89.7154 45.6635 90.1294 45.5494 90.6718L45.2781 90.6433C45.2781 90.4292 45.3067 90.1437 45.3495 89.8011Z" fill="#292F36"/>
<path d="M34.1165 84.5052C34.3306 84.4624 34.5732 84.5052 34.8302 84.6194C35.1299 84.7479 35.3298 84.9335 35.444 85.1761C35.5582 85.4331 35.5725 85.7899 35.5011 86.261L35.287 87.4315C35.2156 87.8455 35.1728 88.1595 35.1585 88.4022C35.1442 88.6306 35.2013 88.8447 35.3012 89.0303C35.4012 89.2158 35.5867 89.3586 35.8579 89.4728L36.8857 89.901L37.9278 87.4172C38.042 87.146 38.0991 86.9462 38.1133 86.8034C38.1276 86.6607 38.0705 86.5465 37.9706 86.4466C37.8707 86.3467 37.6994 86.2467 37.4424 86.1325L37.5281 85.9184C37.8564 86.0754 38.2989 86.2753 38.8842 86.518C39.498 86.7749 39.969 86.9605 40.2831 87.0604L40.1974 87.2745C39.9262 87.1746 39.7263 87.1318 39.5979 87.1175C39.4551 87.1175 39.3409 87.1603 39.2553 87.2745C39.1554 87.3744 39.0554 87.56 38.9413 87.8312L36.7001 93.1842C36.5859 93.4554 36.5289 93.6552 36.5146 93.798C36.5003 93.9407 36.5574 94.0549 36.6573 94.1548C36.7572 94.2547 36.9285 94.3547 37.1855 94.4831L37.0998 94.6973C36.8001 94.5545 36.3718 94.3547 35.8009 94.112C35.5154 93.9978 35.2156 93.8693 34.873 93.7266C34.5304 93.5839 34.302 93.4982 34.1736 93.4411C33.6168 93.1984 33.1743 92.9272 32.846 92.5989C32.5177 92.2706 32.3321 91.928 32.2465 91.5569C32.1608 91.1857 32.2037 90.8289 32.3607 90.472C32.4749 90.1865 32.6605 89.9296 32.9174 89.7012C33.1743 89.4728 33.5027 89.3015 33.9023 89.2158C34.302 89.1302 34.7874 89.1445 35.3155 89.2729L35.187 89.2016C34.8873 89.016 34.6589 88.8304 34.5161 88.6306C34.3734 88.445 34.2735 88.2309 34.2449 88.0025C34.2021 87.7741 34.2164 87.4886 34.2735 87.146L34.4733 85.9327C34.5161 85.69 34.5447 85.5045 34.5447 85.3617C34.5447 85.219 34.5304 85.1048 34.4876 85.0191C34.4448 84.9335 34.3734 84.8621 34.2735 84.8336C34.1593 84.7765 34.0451 84.7765 33.9452 84.805C33.8452 84.8336 33.7025 84.9049 33.5169 85.0048L33.4027 84.8193C33.6597 84.6623 33.9023 84.5481 34.1165 84.5052ZM34.8302 89.587C34.4876 89.6298 34.2164 89.7583 34.0023 89.9724C33.7881 90.1865 33.6026 90.472 33.4456 90.8431C33.2029 91.4284 33.1458 91.9423 33.3028 92.3562C33.4598 92.7702 33.8452 93.1128 34.4876 93.384C34.716 93.4839 34.8873 93.5268 35.03 93.5125C35.1585 93.5125 35.2727 93.4554 35.3726 93.3412C35.4725 93.227 35.5725 93.0414 35.6724 92.7845L36.7858 90.1294L36.0578 89.8296C35.5867 89.6298 35.1728 89.5441 34.8302 89.587Z" fill="#292F36"/>
<path d="M22.9821 86.4466C23.1105 86.4894 23.239 86.4609 23.3532 86.3895C23.4674 86.3181 23.6244 86.1611 23.81 85.9327L27.3929 81.3649C27.5785 81.1365 27.6926 80.9509 27.7355 80.8225C27.7783 80.694 27.764 80.5655 27.6926 80.4513C27.6213 80.3371 27.4785 80.1801 27.2644 79.9945L27.4072 79.809C27.6784 80.0516 28.0495 80.3657 28.5491 80.7511C29.0773 81.165 29.477 81.4648 29.7482 81.6504L29.6054 81.8359C29.377 81.6647 29.1915 81.5647 29.063 81.5362C28.9345 81.4934 28.8061 81.5076 28.6919 81.5933C28.5777 81.6646 28.4207 81.8217 28.2351 82.0501L24.6522 86.6179C24.4666 86.8463 24.3524 87.0319 24.3096 87.1603C24.2668 87.2888 24.281 87.4173 24.3524 87.5315C24.4238 87.6457 24.5665 87.8027 24.7806 87.9883L24.6379 88.1738C24.3952 87.9597 24.0098 87.6457 23.4817 87.2174C22.9821 86.832 22.5824 86.5323 22.2969 86.3324L22.4396 86.1469C22.6823 86.3039 22.8536 86.4038 22.9821 86.4466Z" fill="#292F36"/>
<path d="M13.7603 76.2832C13.7032 75.6409 13.846 74.9985 14.1743 74.3847C14.5169 73.7566 15.0308 73.1999 15.7445 72.6717C16.4439 72.1721 17.1434 71.8438 17.8714 71.7154C18.5994 71.5869 19.2703 71.6297 19.8984 71.8724C20.5265 72.115 21.0546 72.529 21.4686 73.1143C21.9111 73.7138 22.1538 74.3419 22.2108 74.9842C22.2679 75.6266 22.1252 76.2689 21.7969 76.8827C21.4543 77.5108 20.9404 78.0675 20.2267 78.5957C19.5272 79.0953 18.8278 79.4236 18.0998 79.5521C17.3861 79.6805 16.7009 79.6377 16.0728 79.3951C15.4447 79.1524 14.9166 78.7384 14.5026 78.1674C14.0601 77.5536 13.8174 76.9256 13.7603 76.2832ZM15.9015 78.8241C16.4011 78.924 16.9721 78.8812 17.6002 78.6813C18.2283 78.4815 18.8563 78.1532 19.513 77.6678C20.1696 77.1968 20.6835 76.6829 21.0403 76.1405C21.4115 75.598 21.6113 75.0556 21.6399 74.5417C21.6827 74.0278 21.5542 73.571 21.283 73.1856C20.9832 72.7859 20.5978 72.529 20.0839 72.4291C19.5843 72.3292 19.0134 72.372 18.3853 72.5718C17.7572 72.7717 17.1291 73.1 16.4725 73.571C15.8159 74.0421 15.302 74.556 14.9451 75.1127C14.574 75.6551 14.3741 76.1833 14.3313 76.7114C14.2885 77.2253 14.417 77.6821 14.6882 78.0675C14.9879 78.4672 15.3876 78.7242 15.9015 78.8241Z" fill="#292F36"/>
<path d="M14.8594 59.0966C15.0307 59.2251 15.1592 59.4392 15.2448 59.7247C15.3448 60.0245 15.3305 60.31 15.2163 60.5526C15.1021 60.8096 14.8309 61.0522 14.4169 61.2949L13.3749 61.8801C13.018 62.0943 12.7468 62.2656 12.5612 62.4083C12.3757 62.5511 12.2472 62.7224 12.1758 62.9222C12.1044 63.122 12.1045 63.3504 12.1901 63.6359L12.5184 64.7065L15.0878 63.9071C15.3733 63.8215 15.5589 63.7358 15.6731 63.6502C15.7873 63.5645 15.8444 63.4504 15.8587 63.3219C15.8729 63.1934 15.8301 62.9793 15.7587 62.7081L15.9871 62.6367C16.0728 62.9793 16.2012 63.4646 16.4011 64.0642C16.6009 64.7065 16.7579 65.1776 16.8721 65.4773L16.6438 65.5487C16.5438 65.2775 16.4582 65.0919 16.3725 64.992C16.2869 64.8921 16.1727 64.8207 16.0299 64.8207C15.8872 64.8207 15.6731 64.8493 15.4019 64.9492L9.86335 66.6621C9.57786 66.7478 9.39229 66.8334 9.27809 66.9191C9.1639 67.0047 9.1068 67.1189 9.09252 67.2474C9.07825 67.3901 9.12107 67.59 9.19245 67.8612L8.96405 67.9326C8.89268 67.6185 8.76421 67.1617 8.57864 66.5622C8.49299 66.2767 8.3788 65.9484 8.2646 65.6058C8.1504 65.2632 8.06476 65.0205 8.02193 64.8921C7.83636 64.3068 7.77927 63.7929 7.82209 63.3362C7.86491 62.8794 8.00766 62.5082 8.23605 62.2085C8.46444 61.9087 8.76421 61.7089 9.13535 61.5947C9.42084 61.509 9.73488 61.4805 10.0775 61.5233C10.4201 61.5661 10.7484 61.7089 11.091 61.9658C11.4335 62.2227 11.719 62.5939 11.9617 63.0935L11.9474 62.9507C11.9046 62.5939 11.8903 62.3084 11.9474 62.0657C12.0045 61.8231 12.1045 61.6232 12.2472 61.4519C12.4042 61.2806 12.6326 61.0951 12.9324 60.9238L13.9887 60.2957C14.2028 60.1815 14.3741 60.0673 14.474 59.9816C14.5739 59.896 14.6596 59.8103 14.7024 59.7247C14.7452 59.639 14.7452 59.5391 14.7167 59.4392C14.6739 59.3107 14.6168 59.2251 14.5311 59.168C14.4455 59.1109 14.3027 59.0395 14.1029 58.9681L14.1743 58.754C14.4597 58.854 14.7024 58.9681 14.8594 59.0966ZM11.4478 62.9222C11.2052 62.6938 10.9197 62.5653 10.6199 62.5368C10.3201 62.5082 9.97754 62.5511 9.59213 62.6795C8.97833 62.8651 8.56437 63.1649 8.33597 63.5503C8.10758 63.9357 8.10758 64.4638 8.30742 65.1062C8.3788 65.3346 8.46444 65.5059 8.55009 65.6058C8.63574 65.7057 8.76421 65.7628 8.90695 65.7628C9.0497 65.7628 9.26382 65.72 9.52076 65.6486L12.2615 64.7922L12.0331 64.0356C11.8903 63.5217 11.6905 63.1506 11.4478 62.9222Z" fill="#292F36"/>
<path d="M13.7605 45.5501C14.3029 45.3074 14.6313 44.8506 14.774 44.1655C14.8168 43.9085 14.8168 43.6516 14.7455 43.4089C14.6741 43.1662 14.5456 42.9521 14.3458 42.7666C14.1459 42.581 13.8747 42.4525 13.5178 42.3954C13.2181 42.3383 12.9469 42.3669 12.6899 42.4668C12.433 42.5667 12.176 42.7237 11.9334 42.9379C11.6907 43.152 11.4052 43.4375 11.0912 43.7943C10.7343 44.194 10.4203 44.5223 10.149 44.7507C9.87783 44.9934 9.57807 45.1647 9.24975 45.2932C8.92144 45.4216 8.5503 45.4359 8.13634 45.3645C7.7081 45.2789 7.35124 45.1219 7.0943 44.8649C6.83736 44.608 6.65179 44.3082 6.56614 43.9513C6.48049 43.5945 6.48049 43.2233 6.55187 42.8237C6.59469 42.581 6.65179 42.3954 6.72316 42.2241C6.79453 42.0528 6.86591 41.9244 6.95155 41.8244C7.0372 41.7245 7.12285 41.6103 7.23704 41.4961C7.37979 41.3391 7.45116 41.2249 7.47971 41.1393C7.49399 41.0679 7.46544 41.0108 7.39406 40.9537C7.32269 40.8966 7.19422 40.8538 7.02293 40.7967L7.06575 40.5397C7.50826 40.6539 8.27909 40.8252 9.40677 41.0393L9.36395 41.2963C8.96426 41.2535 8.59313 41.2677 8.22199 41.3534C7.86512 41.4248 7.55108 41.5818 7.29414 41.8244C7.0372 42.0528 6.86591 42.3811 6.79453 42.7808C6.73744 43.0521 6.75171 43.2947 6.82308 43.5374C6.89446 43.7801 7.02293 43.9656 7.19422 44.1226C7.37979 44.2797 7.59391 44.3796 7.85085 44.4367C8.26481 44.5081 8.62168 44.451 8.92144 44.2511C9.22121 44.0513 9.5067 43.7943 9.77791 43.4946C10.0491 43.1948 10.2204 42.995 10.3203 42.895C10.72 42.4668 11.0483 42.1385 11.3196 41.8958C11.5908 41.6531 11.8905 41.4819 12.2189 41.3677C12.5472 41.2535 12.904 41.2392 13.2894 41.3106C13.7605 41.3962 14.1459 41.5818 14.4314 41.853C14.7169 42.1385 14.9025 42.4668 15.0024 42.8665C15.1023 43.2662 15.1023 43.6944 15.0167 44.1512C14.9453 44.5223 14.8596 44.8078 14.7312 45.0362C14.617 45.2646 14.46 45.4644 14.2887 45.65C14.1459 45.807 14.0745 45.9212 14.046 46.0069C14.0317 46.0783 14.0603 46.1354 14.1316 46.1925C14.203 46.2495 14.3315 46.3066 14.5028 46.3495L14.46 46.6064C14.046 46.4922 13.1324 46.3066 11.7192 46.0497L11.7621 45.7928C12.5614 45.8641 13.2181 45.7928 13.7605 45.5501Z" fill="#292F36"/>
<path d="M10.9348 33.5165C10.5351 33.3024 10.0783 33.1026 9.56445 32.9027C9.87849 32.346 10.4067 31.3754 11.1204 29.9907C11.8341 28.6204 12.3337 27.6497 12.6049 27.0645C13.076 27.3642 13.5042 27.6212 13.8896 27.821C14.2322 28.0066 14.532 28.135 14.7604 28.235L14.6319 28.4776C14.0609 28.2492 13.6327 28.1065 13.3329 28.0637C13.0332 28.0066 12.7619 28.0637 12.5336 28.2064C12.3052 28.3492 12.0768 28.6347 11.8627 29.0629L11.5772 29.6339L17.4725 32.7029C17.758 32.8599 17.9864 32.9313 18.1434 32.9456C18.3005 32.9598 18.4432 32.917 18.5717 32.8028C18.7002 32.6886 18.8429 32.4745 19.0142 32.1747L19.2283 32.2889C19.0142 32.6458 18.743 33.1454 18.4004 33.802C18.0435 34.4872 17.7866 35.0154 17.6296 35.3437L17.4154 35.2295C17.5582 34.9154 17.6581 34.6728 17.6724 34.5158C17.7009 34.3445 17.6581 34.2017 17.5439 34.0733C17.4297 33.9448 17.2442 33.8163 16.9587 33.6593L11.0633 30.576L10.7635 31.1327C10.5351 31.5609 10.4352 31.9035 10.4495 32.1747C10.4637 32.446 10.5779 32.6886 10.7921 32.9027C11.0062 33.1169 11.363 33.4023 11.8769 33.7307L11.7485 33.9733C11.5629 33.8591 11.2774 33.7021 10.9348 33.5165Z" fill="#292F36"/>
<path d="M21.0122 17.1153C21.2549 16.8726 21.4547 16.6442 21.5975 16.4729L21.7688 16.6442C21.6831 16.7727 21.6403 16.9582 21.6546 17.1724C21.6689 17.3865 21.726 17.6862 21.8402 18.0431L23.1391 21.9115L24.6522 23.4103C24.8664 23.6102 25.0234 23.7529 25.1518 23.81C25.2803 23.8671 25.4088 23.8671 25.5373 23.81C25.6657 23.7529 25.8227 23.6244 26.0369 23.4389L26.2082 23.6102C25.9369 23.8528 25.5801 24.1954 25.1376 24.6379C24.6665 25.109 24.3239 25.4801 24.1098 25.7228L23.9385 25.5515C24.1241 25.3374 24.2525 25.1804 24.3096 25.0519C24.3667 24.9234 24.3667 24.795 24.2954 24.6665C24.2383 24.538 24.0955 24.3667 23.8957 24.1669L22.6395 22.925L17.8718 21.5261C17.5863 21.4404 17.3722 21.4119 17.2295 21.4262C17.0867 21.4404 16.9868 21.4833 16.9154 21.5546L16.7441 21.3833C16.9725 21.1835 17.2295 20.9551 17.4864 20.6839C18.0146 20.1415 18.4 19.756 18.6141 19.4991L18.7854 19.6704C18.4 20.0558 18.3143 20.3556 18.5285 20.5697C18.6141 20.6553 18.7283 20.7124 18.8996 20.7695L22.9107 22.0114L21.8544 18.8567C21.6974 18.4 21.5404 18.0859 21.3691 17.9289C21.2121 17.7719 21.0408 17.7291 20.8552 17.7862C20.6696 17.8433 20.4555 17.986 20.1986 18.2287L20.0273 18.0574C20.3699 17.7433 20.6839 17.4293 21.0122 17.1153Z" fill="#292F36"/>
<path d="M29.6487 11.3626C29.5631 11.4625 29.5202 11.591 29.5488 11.7337C29.5773 11.8765 29.6487 12.0763 29.7914 12.3333L32.5464 17.4436C32.6892 17.7005 32.8034 17.8718 32.9176 17.9717C33.0175 18.0716 33.146 18.1002 33.2744 18.0859C33.4029 18.0716 33.6027 17.986 33.8454 17.8575L34.602 17.4436C35.0302 17.2152 35.33 16.9725 35.487 16.7298C35.644 16.4872 35.7011 16.2159 35.6583 15.8876C35.6155 15.5593 35.487 15.1454 35.2586 14.6029L35.5013 14.4745C35.6012 14.7028 35.7439 14.9883 35.9295 15.3309C36.1436 15.7163 36.4006 16.1446 36.7146 16.6156C36.2435 16.844 35.4442 17.258 34.345 17.8575C33.0318 18.5712 32.0326 19.1137 31.3759 19.4991L31.2617 19.2992C31.5044 19.1565 31.6757 19.028 31.7613 18.9281C31.847 18.8282 31.8898 18.6997 31.8613 18.557C31.8327 18.4142 31.7613 18.2144 31.6186 17.9574L28.8351 12.8472C28.6923 12.5902 28.5781 12.4189 28.4639 12.319C28.364 12.2191 28.2355 12.1905 28.1071 12.2048C27.9643 12.2191 27.7787 12.2905 27.5218 12.4189L27.4219 12.2048C27.7216 12.0763 28.1642 11.8479 28.7494 11.5196C29.3061 11.2199 29.7343 10.9772 30.0341 10.7916L30.1483 10.9915C29.9056 11.1342 29.7486 11.2627 29.6487 11.3626Z" fill="#292F36"/>
<path d="M47.0336 12.276C47.1193 12.7043 47.2477 13.1896 47.4047 13.732C46.8766 13.8177 46.0058 13.9747 44.7782 14.2174C43.308 14.5029 42.2088 14.7313 41.4523 14.9026L41.4094 14.6742C41.6807 14.6028 41.8805 14.5457 41.9947 14.46C42.1089 14.3887 42.1803 14.2745 42.1945 14.146C42.2088 14.0033 42.1945 13.7891 42.1374 13.5037L41.024 7.80811C40.9669 7.52262 40.9098 7.32278 40.8242 7.19431C40.7385 7.06584 40.6529 6.99446 40.5101 6.98019C40.3817 6.95164 40.1676 6.96591 39.8963 7.00874L39.8535 6.78034C40.6101 6.65187 41.7235 6.45203 43.1795 6.16654C44.3072 5.93815 45.1065 5.78113 45.5633 5.66693C45.6062 6.18081 45.6775 6.6376 45.7489 7.03729C45.806 7.33705 45.8631 7.56544 45.9202 7.73674L45.6633 7.79384C45.5062 7.3085 45.3635 6.95164 45.235 6.72325C45.1065 6.49485 44.921 6.35211 44.7069 6.28074C44.4785 6.20936 44.1787 6.20936 43.7647 6.29501L42.8083 6.48058C42.5371 6.53768 42.3373 6.59478 42.2231 6.66615C42.1089 6.73752 42.0375 6.83744 42.009 6.98019C41.9947 7.12293 42.009 7.33705 42.0661 7.62254L42.5942 10.3347L43.3508 10.1777C43.7362 10.1063 43.9646 9.93502 44.0502 9.67808C44.1359 9.42113 44.1644 9.17847 44.1502 8.9358C44.1359 8.69313 44.1216 8.53611 44.1216 8.46474L44.3785 8.40764C44.4214 8.79305 44.4785 9.14992 44.5498 9.49251L44.664 10.0349C44.7354 10.4204 44.8639 10.9628 45.0494 11.648L44.7925 11.7051C44.7782 11.648 44.7211 11.4767 44.6212 11.1626C44.5213 10.8486 44.3785 10.6345 44.1644 10.506C43.9503 10.3775 43.7076 10.349 43.3936 10.4061L42.637 10.5488L43.1795 13.3038C43.2366 13.5893 43.2937 13.7891 43.3651 13.9176C43.4364 14.0318 43.5363 14.1032 43.6791 14.1317C43.8076 14.146 44.0217 14.1317 44.2929 14.0746L45.1351 13.9033C45.6062 13.8034 45.963 13.6749 46.1914 13.5037C46.4198 13.3324 46.5483 13.0897 46.6054 12.7899C46.6625 12.4902 46.6625 12.0619 46.6196 11.5052L46.8766 11.4481C46.9194 11.6622 46.9622 11.9335 47.0336 12.276Z" fill="#292F36"/>
<path d="M37.414 66.7905C36.7574 65.9055 36.1864 64.9348 35.6868 63.8642C35.1872 62.7936 34.7875 61.7088 34.4878 60.5954C33.8311 55.6992 33.8169 50.9458 34.4307 46.3351C35.0445 41.7244 36.0437 37.1851 37.414 32.7029C37.6424 32.2033 38.142 31.9606 38.9129 31.9606C39.6837 31.9606 40.4402 32.1319 41.2111 32.4745C41.9819 32.8171 42.61 33.2739 43.1096 33.8449C43.6092 34.4159 43.7234 35.0154 43.4522 35.6292C43.0239 36.5428 42.61 37.7847 42.196 39.3263C41.782 40.8822 41.3681 42.5952 40.9969 44.4651C40.6115 46.3351 40.2832 48.305 39.9977 50.3463C39.7122 52.3875 39.4981 54.3574 39.3697 56.2274C39.2412 58.0973 39.2126 59.796 39.284 61.3091C39.3554 62.8222 39.5838 64.0213 39.9692 64.892C41.7678 62.4796 43.4093 59.9816 44.9082 57.3979C46.407 54.8142 47.8059 52.2019 49.1192 49.5326C50.4324 46.8775 51.6886 44.1939 52.8734 41.4675C54.0582 38.7553 55.2287 36.0717 56.3706 33.4309C56.9416 32.0891 57.5126 30.6759 58.0693 29.1914C58.626 27.6926 59.354 26.4221 60.2818 25.3515C60.6673 25.0089 60.967 24.8948 61.1669 25.0089C61.381 25.1231 61.5237 25.3373 61.5951 25.6656C61.6665 25.9939 61.7093 26.3365 61.7093 26.6933C61.7093 27.0502 61.7093 27.3357 61.7093 27.5213C61.4381 29.277 61.2097 31.0185 61.0241 32.7457C60.8386 34.473 60.4246 36.1288 59.8251 37.7418C58.8258 40.2684 57.8123 42.7665 56.756 45.2645C55.6997 47.7483 54.572 50.2035 53.373 52.6159C52.1739 55.0283 50.8607 57.3693 49.476 59.639C48.0771 61.9229 46.564 64.0926 44.9082 66.1482C43.6092 67.7897 42.3102 68.6605 41.0398 68.7604C39.7122 68.8746 38.5275 68.2037 37.414 66.7905Z" fill="#292F36" stroke="white" stroke-miterlimit="10"/>
<path d="M61.0518 60.3099C60.2809 59.2393 59.5244 58.1544 58.7821 57.041C58.0398 55.9276 57.6687 54.7143 57.6687 53.3725C57.6687 51.8879 58.0969 50.4747 58.9534 49.1472C59.8099 47.834 60.7948 46.7634 61.9082 45.964C62.365 45.6642 62.8361 45.4073 63.3071 45.2217C63.7782 45.0361 64.2921 45.0504 64.8345 45.2788C65.0629 45.393 65.3056 45.4787 65.5482 45.5358C65.7909 45.5929 66.0193 45.6642 66.2049 45.7356C66.3904 45.807 66.6046 45.9212 66.8329 46.0782C67.0613 46.2352 67.1755 46.4351 67.1755 46.7063C67.1755 47.7769 67.2041 48.6476 67.2612 49.3185C67.3183 49.9894 67.4039 50.5604 67.5181 51.0457C67.6323 51.5311 67.7465 51.945 67.8607 52.3019C67.9749 52.673 68.0891 53.0584 68.2033 53.4724C68.2747 53.8578 68.2604 54.1861 68.1462 54.4431C68.032 54.7143 67.7465 54.7428 67.2897 54.5573C66.4475 54.2575 65.8195 53.6437 65.4198 52.7158C65.0201 51.788 64.7203 50.9601 64.5347 50.1893C64.4919 50.0322 64.4063 49.7753 64.2493 49.3899C64.0922 49.0045 64.0066 48.7333 63.9638 48.5905C63.664 48.5191 63.2929 48.6191 62.8789 48.9045C62.4649 49.19 62.0795 49.5897 61.7655 50.0751C61.4372 50.5747 61.2231 51.1456 61.1374 51.8023C61.0375 52.4589 61.166 53.1013 61.5085 53.7579C61.6656 53.9863 61.8797 54.2718 62.1652 54.5858C62.4507 54.9141 62.7362 55.2424 63.0216 55.585C63.3071 55.9276 63.5926 56.2702 63.8781 56.5842C64.1636 56.8983 64.4063 57.1695 64.5918 57.3551C64.8202 57.5835 64.9773 57.7119 65.0486 57.7262C65.12 57.7405 65.3198 57.6977 65.6196 57.5835C66.005 57.3979 66.5903 57.141 67.3754 56.8412C68.1605 56.5414 68.9884 56.2274 69.8449 55.9276C70.7013 55.6279 71.5293 55.3709 72.3144 55.1568C73.0995 54.9427 73.699 54.8427 74.1272 54.8427C74.3985 54.8427 74.584 54.9427 74.6982 55.1282C74.8124 55.2424 74.7981 55.3995 74.6411 55.585C74.4841 55.7706 74.2843 55.9704 74.0416 56.156C73.7989 56.3416 73.5277 56.5129 73.2708 56.6699C72.9995 56.8269 72.8283 56.9126 72.7569 56.9554C72.1003 57.3408 71.2866 57.769 70.2874 58.2544C69.2882 58.7254 68.4317 59.1965 67.7037 59.6533C67.6323 59.7246 67.4896 59.8103 67.2755 59.8817C67.0613 59.953 66.9043 60.0387 66.7901 60.1101C67.2469 61.1378 67.5752 62.0371 67.7608 62.7794C67.9464 63.5217 68.0177 64.2354 67.9606 64.9348C67.9035 65.62 67.7608 66.3195 67.5324 67.0332C67.304 67.7469 66.99 68.5606 66.6188 69.4741C66.0764 70.3592 65.534 71.2014 64.9773 72.0007C64.4206 72.8001 63.8067 73.5281 63.1073 74.1847C62.4221 74.8414 61.6656 75.3553 60.8662 75.7264C60.0668 76.1118 59.1818 76.2974 58.2254 76.2974C57.683 76.2974 57.1691 76.226 56.6695 76.0975C56.1699 75.9691 55.7559 75.6836 55.4133 75.2696C54.5283 74.3132 54.043 73.2712 53.9288 72.1435C53.8146 71.0158 53.9145 69.9024 54.2143 68.789C54.4426 68.1038 54.7281 67.4757 55.0707 66.8905C55.9129 65.4345 56.8408 64.2068 57.8543 63.1934C58.882 62.1941 59.9383 61.2235 61.0518 60.3099ZM63.0074 62.8936C62.5791 63.3218 62.0082 63.9214 61.2802 64.7065C60.5522 65.4916 59.8812 66.348 59.2389 67.2616C58.6108 68.1752 58.0969 69.0887 57.6972 69.988C57.2976 70.8873 57.1976 71.6582 57.3832 72.3148C58.154 71.9722 58.9391 71.4012 59.7385 70.6161C60.5379 69.831 61.2516 68.9745 61.8654 68.0324C62.4792 67.0903 62.9075 66.1625 63.1501 65.2489C63.3928 64.321 63.35 63.5359 63.0074 62.8936Z" fill="#292F36" stroke="white" stroke-miterlimit="10"/>
<path d="M51.7463 83.5489C33.8889 83.5489 19.3574 69.0174 19.3574 51.16C19.3574 33.3025 33.8889 18.7711 51.7463 18.7711C69.6038 18.7711 84.1353 33.3025 84.1353 51.16C84.1353 69.0174 69.6038 83.5489 51.7463 83.5489ZM51.7463 20.1985C34.674 20.1985 20.7849 34.0876 20.7849 51.16C20.7849 68.2323 34.674 82.1214 51.7463 82.1214C68.8187 82.1214 82.7078 68.2323 82.7078 51.16C82.7078 34.0876 68.8187 20.1985 51.7463 20.1985Z" fill="#292F36"/>
</svg>
