<svg width="165" height="44" viewBox="0 0 165 44" fill="none" xmlns="http://www.w3.org/2000/svg">
<path d="M35.7034 43.5479H8.88513C4.47798 43.5479 0.90625 39.9762 0.90625 35.569V8.7508C0.90625 4.34365 4.47798 0.771912 8.88513 0.771912H35.7034C40.1105 0.771912 43.6823 4.34365 43.6823 8.7508V35.569C43.6823 39.9762 40.1105 43.5479 35.7034 43.5479Z" fill="#292F36"/>
<path d="M29.9999 22.5535C30.7627 23.51 31.1502 24.6238 31.1502 25.883C31.1502 27.7355 30.5327 29.1884 29.2977 30.2175C28.0627 31.2467 26.295 31.7794 23.9946 31.7794H13.9453V10.1674H23.7524C25.956 10.1674 27.6511 10.6517 28.8497 11.6082C30.0484 12.5647 30.6537 13.9329 30.6537 15.7006C30.6537 17.0082 30.3026 18.0858 29.6125 18.9575C28.9224 19.8293 28.0143 20.3862 26.8883 20.6526C28.208 20.9674 29.2371 21.597 29.9999 22.5535ZM19.1637 19.0059H22.5901C24.4062 19.0059 25.3143 18.2311 25.3143 16.6813C25.3143 15.1315 24.382 14.3566 22.5296 14.3566H19.1637V19.0059ZM25.7986 25.1566C25.7986 24.3817 25.5444 23.7763 25.0358 23.3405C24.5273 22.9046 23.8009 22.6866 22.8686 22.6866H19.1758V27.5418H22.9049C24.83 27.5297 25.7986 26.7427 25.7986 25.1566Z" fill="white"/>
<path d="M68.4675 31.7798L63.7939 23.6193H62.6074V31.7798H57.377V10.1678H66.3002C68.0074 10.1678 69.4603 10.4584 70.6347 11.0516C71.8213 11.6449 72.7051 12.4561 73.2984 13.4853C73.8917 14.5144 74.1823 15.6888 74.1823 17.0207C74.1823 18.5947 73.7464 19.9265 72.8867 21.0283C72.015 22.1301 70.7679 22.8807 69.1092 23.2924L74.2428 31.7919H68.4675V31.7798ZM62.6074 20.0476H65.8401C66.8814 20.0476 67.6442 19.8175 68.1285 19.3574C68.6128 18.8973 68.867 18.2193 68.867 17.3234C68.867 16.4637 68.6128 15.7978 68.1164 15.3014C67.6199 14.8171 66.8572 14.5628 65.8401 14.5628H62.6074V20.0476Z" fill="#292F36"/>
<path d="M97.8404 27.8449H89.7405L88.3965 31.7919H82.8997L90.818 10.3373H96.8355L104.754 31.7919H99.1965L97.8404 27.8449ZM96.4965 23.8615L93.8086 15.9189L91.0844 23.8615H96.4965Z" fill="#292F36"/>
<path d="M133.606 31.7798H128.376L119.634 18.5099V31.7798H114.404V10.1678H119.634L128.376 23.5588V10.1678H133.606V31.7798Z" fill="#292F36"/>
<path d="M162.931 26.5736C162.023 28.2081 160.715 29.4915 159.02 30.4117C157.313 31.3318 155.315 31.7919 153.015 31.7919H144.854V10.1799H153.015C155.339 10.1799 157.349 10.6279 159.032 11.5239C160.727 12.4198 162.023 13.679 162.931 15.3135C163.839 16.9481 164.287 18.8126 164.287 20.9435C164.287 23.0503 163.827 24.9269 162.931 26.5736ZM157.301 25.4839C158.427 24.4063 158.996 22.8808 158.996 20.9314C158.996 18.97 158.427 17.4566 157.301 16.379C156.175 15.3014 154.589 14.7566 152.542 14.7566H150.072V27.1063H152.542C154.589 27.1063 156.175 26.5736 157.301 25.4839Z" fill="#292F36"/>
</svg>
