<svg width="132" height="44" viewBox="0 0 132 44" fill="none" xmlns="http://www.w3.org/2000/svg">
<path d="M11.9384 0.976501V1.16207L11.1676 1.34764V9.56977L11.9384 9.75534V9.94091H8.28415V9.75534L9.05498 9.56977V2.56098L6.02879 10.0694H5.64335L1.71785 2.56098V9.36993L2.74562 9.75534V9.94091H0.304688V9.75534L1.33246 9.36993V1.34764L0.561619 1.16207V0.976501H2.16036C2.40303 0.976501 2.61715 1.00505 2.78844 1.06215C2.95974 1.11925 3.13106 1.19062 3.25953 1.29054C3.40227 1.39046 3.51647 1.50466 3.61639 1.63313C3.71631 1.7616 3.80196 1.91862 3.88761 2.07564L6.68541 7.42859L8.82659 2.07564C8.89796 1.89007 8.96935 1.73305 9.06927 1.60458C9.15492 1.47611 9.26909 1.36191 9.39756 1.26199C9.52603 1.16207 9.68307 1.0907 9.86864 1.04787C10.0542 1.00505 10.2826 0.976501 10.5681 0.976501H11.9384Z" fill="#292F36"/>
<path d="M16.5067 3.36041C17.0349 3.36041 17.5202 3.43179 17.9342 3.5888C18.3481 3.74582 18.705 3.97422 19.0048 4.25971C19.3045 4.55947 19.5187 4.91634 19.6757 5.3303C19.8327 5.74426 19.9041 6.22959 19.9041 6.75775C19.9041 7.28591 19.8327 7.77124 19.6757 8.1852C19.5187 8.59917 19.2903 8.95603 19.0048 9.25579C18.705 9.55556 18.3481 9.76968 17.9342 9.9267C17.5202 10.0837 17.0349 10.1551 16.5067 10.1551C15.9786 10.1551 15.4932 10.0837 15.0793 9.9267C14.6653 9.76968 14.3084 9.54129 14.0087 9.25579C13.7089 8.95603 13.4948 8.59917 13.3378 8.1852C13.1808 7.77124 13.1094 7.28591 13.1094 6.75775C13.1094 6.22959 13.1808 5.74426 13.3378 5.3303C13.4948 4.91634 13.7232 4.55947 14.0087 4.25971C14.3084 3.95994 14.6653 3.74582 15.0793 3.5888C15.4932 3.43179 15.9643 3.36041 16.5067 3.36041ZM16.5067 9.91242C16.6495 9.91242 16.7922 9.8696 16.9492 9.76968C17.092 9.66976 17.2204 9.51274 17.3346 9.27007C17.4488 9.0274 17.5488 8.71336 17.6201 8.31368C17.6915 7.89971 17.7343 7.38583 17.7343 6.77203C17.7343 6.14395 17.6915 5.63006 17.6201 5.23038C17.5488 4.83069 17.4488 4.50237 17.3346 4.27398C17.2204 4.04559 17.092 3.8743 16.9492 3.77438C16.8065 3.67445 16.6637 3.63163 16.5067 3.63163C16.364 3.63163 16.2212 3.67445 16.0642 3.77438C15.9215 3.8743 15.793 4.03131 15.6788 4.27398C15.5646 4.51665 15.4647 4.83069 15.3933 5.23038C15.3219 5.64434 15.2791 6.15822 15.2791 6.77203C15.2791 7.4001 15.3219 7.91399 15.3933 8.31368C15.4647 8.71336 15.5646 9.04168 15.6788 9.27007C15.793 9.49846 15.9215 9.66976 16.0642 9.76968C16.207 9.85533 16.3497 9.91242 16.5067 9.91242Z" fill="#292F36"/>
<path d="M26.1406 0.976501C26.9115 0.976501 27.2969 1.36191 27.2969 2.13274V9.58405L28.0677 9.76962V9.95518H26.9115C26.5974 9.95518 26.3548 9.91236 26.1692 9.81244C25.9836 9.71252 25.8266 9.59832 25.7267 9.48413C25.5982 9.34138 25.4983 9.17009 25.4412 8.99879C25.327 9.22718 25.1842 9.41275 25.0129 9.58405C24.8702 9.72679 24.6704 9.85526 24.4277 9.98373C24.185 10.1122 23.8995 10.1693 23.5712 10.1693C23.2001 10.1693 22.8575 10.0979 22.5434 9.95518C22.2151 9.81244 21.9439 9.59832 21.7155 9.31283C21.4871 9.02734 21.2873 8.67048 21.1588 8.25652C21.0161 7.82828 20.959 7.34294 20.959 6.77196C20.959 6.20098 21.0304 5.71565 21.1588 5.28741C21.3016 4.85918 21.4871 4.51659 21.7441 4.2311C21.9867 3.94561 22.2865 3.73149 22.6291 3.58874C22.9717 3.446 23.3571 3.37462 23.7854 3.37462C24.0138 3.37462 24.2136 3.40317 24.3992 3.446C24.5847 3.50309 24.7417 3.56019 24.8702 3.63157C25.0272 3.70294 25.1557 3.78859 25.2699 3.88851V1.39046L24.4991 1.20489V1.01933H26.1406V0.976501ZM25.2413 4.25964C25.1414 4.15972 25.0558 4.07408 24.9416 4.0027C24.8417 3.93133 24.7417 3.87423 24.6276 3.81713C24.5134 3.76004 24.3992 3.74576 24.2707 3.74576C24.1137 3.74576 23.9566 3.78859 23.8139 3.87423C23.6711 3.95988 23.5569 4.10262 23.4427 4.31674C23.3428 4.53086 23.2572 4.8449 23.2001 5.23031C23.143 5.63 23.1145 6.12961 23.1145 6.75769C23.1145 7.37149 23.143 7.85683 23.2001 8.24224C23.2572 8.62765 23.3286 8.92742 23.4285 9.14153C23.5141 9.35565 23.6141 9.51267 23.7425 9.58405C23.8567 9.65542 23.9709 9.69824 24.0851 9.69824C24.285 9.69824 24.4562 9.64114 24.599 9.54122C24.7417 9.4413 24.8559 9.31283 24.9558 9.18436C25.07 9.02734 25.17 8.85604 25.2556 8.67048V4.25964H25.2413Z" fill="#292F36"/>
<path d="M32.3652 10.1694C31.266 10.1694 30.4096 9.86961 29.8101 9.27008C29.1963 8.67055 28.8965 7.82835 28.8965 6.77203C28.8965 6.24388 28.9679 5.75854 29.1249 5.34458C29.2819 4.93062 29.496 4.57375 29.7673 4.27399C30.0385 3.97422 30.3668 3.76011 30.7664 3.60309C31.1519 3.44607 31.5801 3.37469 32.0511 3.37469C32.5365 3.37469 32.9647 3.44607 33.3359 3.57454C33.7213 3.71728 34.0353 3.90285 34.3065 4.13125C34.5778 4.35964 34.7776 4.63085 34.9203 4.94489C35.0631 5.25893 35.1344 5.58725 35.1344 5.94411C35.1344 6.05831 35.1345 6.1725 35.1202 6.25815C35.1059 6.3438 35.0917 6.42945 35.0774 6.50082C35.0488 6.58647 35.0345 6.65784 35.006 6.71494C34.6348 6.78631 34.2352 6.85768 33.8069 6.9005C33.4501 6.9576 33.0361 7.00043 32.5651 7.02898C32.094 7.05752 31.6087 7.08607 31.0948 7.08607C31.0948 7.61423 31.1376 8.05674 31.209 8.41361C31.2803 8.77047 31.3945 9.05596 31.523 9.2558C31.6657 9.46992 31.8228 9.61267 32.0083 9.69831C32.1939 9.78396 32.408 9.82679 32.6222 9.82679C32.8791 9.82679 33.1217 9.78396 33.3501 9.68404C33.5785 9.58412 33.7784 9.46992 33.9354 9.3129C34.1067 9.15588 34.2352 8.97031 34.3351 8.77047C34.435 8.57063 34.4778 8.37078 34.4778 8.15666H34.7919C34.7919 8.41361 34.7348 8.65627 34.6206 8.89894C34.5064 9.14161 34.3351 9.35572 34.121 9.54129C33.9069 9.72686 33.6499 9.86961 33.3501 9.9838C33.0646 10.1123 32.7363 10.1694 32.3652 10.1694ZM31.0805 6.75776C31.366 6.75776 31.6229 6.75776 31.8513 6.74349C32.0797 6.72921 32.2653 6.71494 32.4223 6.70066C32.6079 6.68639 32.7506 6.65784 32.8791 6.64356C32.8934 6.55791 32.9219 6.45799 32.9362 6.35807C32.9505 6.25815 32.9647 6.15823 32.979 6.04403C32.9933 5.92984 32.9933 5.80137 32.9933 5.6729C32.9933 5.28748 32.9647 4.95917 32.9076 4.70223C32.8505 4.44529 32.7791 4.23117 32.6792 4.05987C32.5936 3.90285 32.4937 3.77438 32.3652 3.71728C32.2367 3.66019 32.1368 3.61736 32.0226 3.61736C31.9084 3.61736 31.7942 3.66019 31.68 3.74583C31.5658 3.83148 31.4659 3.9885 31.366 4.20262C31.2803 4.43101 31.1947 4.74505 31.1376 5.15901C31.0805 5.57297 31.0805 6.10113 31.0805 6.75776Z" fill="#292F36"/>
<path d="M40.5312 3.80287C40.2742 3.80287 40.0459 3.85997 39.846 3.95989C39.6462 4.05981 39.4748 4.18828 39.3321 4.31675C39.1751 4.47377 39.0466 4.64507 38.9181 4.83064V9.58406L39.689 9.76963V9.9552H36.0918V9.76963L36.8626 9.58406V3.93134L36.0918 3.74577V3.5602H37.248C37.5478 3.5602 37.7904 3.6173 37.9903 3.71722C38.1759 3.81714 38.3329 3.93134 38.4471 4.04554C38.5756 4.18828 38.6755 4.3453 38.7326 4.5166C38.8611 4.33103 39.0181 4.15973 39.2036 4.00271C39.3607 3.87424 39.5605 3.76005 39.8032 3.64585C40.0459 3.53166 40.3171 3.48883 40.6454 3.48883C41.1022 3.48883 41.4448 3.60303 41.6731 3.80287C41.9015 4.01699 42.0014 4.31675 42.0014 4.70217C42.0014 4.98766 41.9158 5.23032 41.7445 5.40162C41.5732 5.57291 41.3306 5.65856 41.0451 5.65856C40.9737 5.65856 40.9166 5.65856 40.8452 5.65856C40.7738 5.65856 40.731 5.64429 40.6882 5.64429C40.6311 5.63001 40.574 5.63001 40.5312 5.60146V3.80287Z" fill="#292F36"/>
<path d="M47.5255 5.47304C47.5255 5.18755 47.4969 4.93061 47.4398 4.71649C47.3827 4.50237 47.3114 4.33107 47.2115 4.2026C47.1258 4.05986 47.0259 3.95993 46.8974 3.90284C46.7833 3.84574 46.669 3.80292 46.5548 3.80292C46.355 3.80292 46.1837 3.86001 46.041 3.95994C45.8982 4.05986 45.7698 4.18833 45.6841 4.3168C45.5699 4.47382 45.4842 4.64511 45.3986 4.83068V9.5841L46.1694 9.76967V9.95524H42.5723V9.76967L43.3431 9.5841V3.93139L42.5723 3.74582V3.56025H43.7285C44.0283 3.56025 44.2709 3.61735 44.4708 3.71727C44.6563 3.81719 44.8134 3.93139 44.9276 4.04558C45.056 4.18833 45.1559 4.34535 45.213 4.51664C45.3272 4.30252 45.47 4.10268 45.6413 3.93139C45.784 3.78864 45.9839 3.66017 46.2123 3.5317C46.4406 3.40323 46.7404 3.34613 47.083 3.34613C47.4541 3.34613 47.7967 3.40323 48.0965 3.5317C48.4105 3.6459 48.6675 3.81719 48.8816 4.00276C49.0957 4.2026 49.267 4.41672 49.3955 4.67366C49.524 4.9306 49.581 5.18754 49.581 5.45876V9.56983L50.3519 9.7554V9.94097H48.6818C47.9109 9.94097 47.5255 9.55555 47.5255 8.78473V5.47304Z" fill="#292F36"/>
<path d="M1.66016 18.9767V18.4485H11.5809V18.9767L9.49686 19.5049V30.2821H16.9767V19.5049L14.8926 18.9767V18.4485H24.8135V18.9767L22.7293 19.5049V41.7731L24.8135 42.3013V42.8295H14.8926V42.287L16.9767 41.7589V31.1529H9.49686V41.7589L11.5809 42.287V42.8152H1.66016V42.287L3.74423 41.7589V19.4906L1.66016 18.9767Z" fill="#292F36"/>
<path d="M37.1471 24.8864C38.5888 24.8864 39.8735 25.1005 41.0155 25.5144C42.1575 25.9284 43.1139 26.5422 43.9132 27.3416C44.7126 28.1409 45.3264 29.1116 45.7404 30.2536C46.1543 31.3955 46.3685 32.6803 46.3685 34.122C46.3685 35.5637 46.1543 36.8484 45.7404 37.9904C45.3264 39.1323 44.7126 40.0887 43.9132 40.8881C43.1139 41.6875 42.1432 42.3013 41.0155 42.7153C39.8735 43.1292 38.5888 43.3433 37.1471 43.3433C35.7054 43.3433 34.4207 43.1292 33.2787 42.7153C32.1368 42.3013 31.1804 41.6875 30.381 40.8881C29.5816 40.0887 28.9678 39.1181 28.5539 37.9904C28.1399 36.8484 27.9258 35.5637 27.9258 34.122C27.9258 32.6803 28.1399 31.3955 28.5539 30.2536C28.9678 29.1116 29.5816 28.1552 30.381 27.3416C31.1804 26.5279 32.151 25.9284 33.2787 25.5144C34.4207 25.1005 35.7054 24.8864 37.1471 24.8864ZM37.1471 42.6296C37.5468 42.6296 37.9322 42.5011 38.3319 42.2442C38.7316 41.9872 39.0742 41.5447 39.3882 40.9024C39.7023 40.26 39.9592 39.3893 40.1591 38.2901C40.3589 37.191 40.4588 35.7921 40.4588 34.0934C40.4588 32.3948 40.3589 30.9959 40.1591 29.8967C39.9592 28.7976 39.7023 27.9268 39.3882 27.2845C39.0742 26.6421 38.7173 26.1996 38.3319 25.9427C37.9465 25.6857 37.5468 25.5573 37.1471 25.5573C36.7474 25.5573 36.362 25.6857 35.9624 25.9427C35.5627 26.1996 35.22 26.6421 34.906 27.2845C34.592 27.9268 34.3351 28.7976 34.1352 29.8967C33.9354 30.9959 33.8354 32.3948 33.8354 34.0934C33.8354 35.7921 33.9354 37.191 34.1352 38.2901C34.3351 39.3893 34.592 40.26 34.906 40.9024C35.22 41.5447 35.5769 41.9872 35.9624 42.2442C36.362 42.5011 36.7474 42.6296 37.1471 42.6296Z" fill="#292F36"/>
<path d="M72.449 30.6247C72.449 29.7968 72.3776 29.0831 72.2349 28.5263C72.0922 27.9696 71.9209 27.4986 71.6925 27.1417C71.4641 26.7849 71.2214 26.5279 70.9644 26.3566C70.6932 26.1996 70.4363 26.1139 70.1794 26.1139C69.7369 26.1139 69.3514 26.2567 69.0088 26.5422C68.6663 26.8277 68.3808 27.156 68.1238 27.4986C67.8526 27.9125 67.5957 28.3836 67.3958 28.8832V41.7588L69.4942 42.287V42.8152H59.7589V42.287L61.843 41.7588V30.6247C61.843 29.7968 61.7716 29.0831 61.6289 28.5263C61.4861 27.9696 61.3148 27.4986 61.0865 27.1417C60.8581 26.7849 60.6154 26.5279 60.3585 26.3566C60.0873 26.1996 59.8303 26.1139 59.5734 26.1139C59.1308 26.1139 58.7455 26.2567 58.4029 26.5422C58.0603 26.8277 57.7748 27.156 57.5178 27.4986C57.2323 27.9125 56.9897 28.3836 56.7898 28.8832V41.7588L58.8739 42.287V42.8152H49.1387V42.287L51.2228 41.7588V26.4565L49.1387 25.9284V25.4002H52.2648C53.0784 25.4002 53.7493 25.543 54.2632 25.8142C54.7914 26.0854 55.1911 26.3994 55.5051 26.7135C55.8477 27.1132 56.1046 27.5414 56.2759 27.9982C56.5757 27.4129 56.9468 26.8991 57.3894 26.428C57.789 26.0283 58.2744 25.6714 58.8454 25.3431C59.4306 25.0148 60.1301 24.8578 60.9723 24.8578C62.3569 24.8578 63.5702 25.1718 64.5694 25.7856C65.5829 26.3994 66.3538 27.1988 66.882 28.1695C67.1817 27.5699 67.5529 27.0275 67.9954 26.5279C68.3951 26.114 68.8804 25.7285 69.4514 25.3859C70.0366 25.0434 70.736 24.8578 71.5782 24.8578C72.5346 24.8578 73.3911 25.0148 74.1905 25.3146C74.9756 25.6143 75.6608 26.0283 76.2318 26.5565C76.8027 27.0846 77.2452 27.6841 77.5593 28.3836C77.8733 29.0831 78.0304 29.8253 78.0304 30.6104V41.7446L80.1144 42.2727V42.8009H75.5894C73.5053 42.8009 72.4633 41.7588 72.4633 39.6748V30.6247H72.449Z" fill="#292F36"/>
<path d="M91.5899 43.329C88.6208 43.329 86.3083 42.5154 84.6668 40.8738C83.0252 39.2323 82.1973 36.9911 82.1973 34.1077C82.1973 32.666 82.4114 31.3813 82.8253 30.2393C83.2393 29.0973 83.8246 28.1409 84.5668 27.3273C85.3091 26.5279 86.2084 25.9141 87.2648 25.5001C88.3211 25.0862 89.4773 24.8721 90.7192 24.8721C92.0181 24.8721 93.1887 25.0576 94.2164 25.4288C95.2442 25.7999 96.1292 26.2995 96.843 26.9276C97.5567 27.5557 98.1134 28.298 98.4988 29.1402C98.8842 29.9824 99.0698 30.8816 99.0698 31.838C99.0698 32.1664 99.0555 32.4518 99.0127 32.6945C98.9698 32.9372 98.9413 33.1513 98.8842 33.3369C98.8128 33.5653 98.7557 33.7651 98.7129 33.9221C97.6851 34.1362 96.6146 34.3075 95.4726 34.4503C94.5019 34.593 93.3742 34.7072 92.1038 34.8214C90.8334 34.9213 89.4916 34.9784 88.1069 34.9784C88.1069 36.4202 88.2069 37.6192 88.421 38.5756C88.6351 39.532 88.9206 40.3028 89.2917 40.8738C89.6628 41.4448 90.1053 41.8445 90.6192 42.0872C91.1331 42.3298 91.6898 42.4583 92.2894 42.4583C92.9888 42.4583 93.6455 42.3298 94.2593 42.0729C94.8731 41.8159 95.4012 41.4734 95.858 41.0451C96.3148 40.6169 96.6717 40.1315 96.9429 39.5891C97.2141 39.0467 97.3426 38.49 97.3426 37.9333H98.2133C98.2133 38.6327 98.0563 39.3036 97.7423 39.946C97.4282 40.6026 96.9857 41.1736 96.4004 41.6732C95.8152 42.1728 95.13 42.5725 94.3164 42.8723C93.4885 43.172 92.5749 43.329 91.5899 43.329ZM88.1069 34.1077C88.892 34.1077 89.5915 34.0934 90.191 34.0506C90.7905 34.0078 91.3044 33.9792 91.7184 33.9364C92.2037 33.8936 92.6177 33.8365 92.9746 33.7651C93.0174 33.5367 93.0745 33.2798 93.1459 32.9943C93.1887 32.7373 93.2315 32.4518 93.26 32.1378C93.2886 31.8238 93.3171 31.4955 93.3171 31.1529C93.3171 30.1108 93.2315 29.2401 93.0745 28.5263C92.9174 27.8126 92.7033 27.2416 92.4607 26.7991C92.218 26.3566 91.9325 26.0426 91.6328 25.857C91.3187 25.6714 91.0046 25.5715 90.7049 25.5715C90.4051 25.5715 90.0911 25.6857 89.777 25.8998C89.463 26.1282 89.1918 26.5422 88.9491 27.156C88.7065 27.7698 88.5066 28.6405 88.3353 29.754C88.1926 30.8674 88.1069 32.3234 88.1069 34.1077Z" fill="#292F36"/>
<path d="M116.158 42.4583V28.3408L103.682 18.4628V42.4583H116.158Z" fill="#292F36"/>
<path d="M131.587 42.4583V28.3408L119.311 18.4628V42.4583H131.587Z" fill="#292F36"/>
</svg>
