<svg width="118" height="48" viewBox="0 0 118 48" fill="none" xmlns="http://www.w3.org/2000/svg">
<path d="M0.988281 29.7841V0.57843H18.1891V29.7699H0.988281V29.7841ZM16.1051 22.9894L16.5476 19.7634L14.9488 19.6064L14.4634 22.0902C13.4642 22.5898 12.2366 22.8324 10.7663 22.8324C8.76791 22.8324 7.18343 22.2044 6.02719 20.9339C4.85668 19.6635 4.2857 17.9934 4.2857 15.9093C4.2857 13.8823 4.85668 12.2122 5.98437 10.8989C7.11206 9.58566 8.59665 8.92903 10.4381 8.92903C11.3802 8.92903 12.1795 9.04323 12.8219 9.25735C13.4642 9.47147 14.0495 9.75696 14.6062 10.1281L15.0773 12.5833L16.7046 12.4263L16.2335 9.20025C15.5483 8.615 14.7347 8.14394 13.7925 7.7728C12.8504 7.41593 11.6799 7.23036 10.2953 7.23036C8.65374 7.23036 7.24055 7.63005 6.05577 8.4437C4.87098 9.25735 3.94313 10.3279 3.2865 11.6555C2.62988 12.9973 2.30156 14.439 2.30156 15.9807C2.30156 18.4216 3.0581 20.4629 4.5712 22.0902C6.0843 23.7175 8.05418 24.5311 10.4951 24.5311C12.8932 24.5311 14.7632 24.0172 16.1051 22.9894Z" fill="#292F36"/>
<path d="M24.0273 29.7841V0.57843H31.4215V29.7699H24.0273V29.7841ZM24.8124 24.2742H30.6507V22.8039H28.638V6.50236H24.7839V7.97264H26.8251V22.8039H24.8124V24.2742Z" fill="#292F36"/>
<path d="M37.2598 29.7841V0.57843H50.2496V29.7699H37.2598V29.7841ZM39.6151 13.6539L39.2011 16.309L40.6999 16.4945L41.1424 14.5104C41.7848 14.1963 42.5128 14.0393 43.3693 14.0393C44.397 14.0393 45.0965 14.2963 45.4534 14.8101C45.8102 15.324 45.9815 15.9949 45.9815 16.8229V17.8506C45.6675 17.8221 45.3392 17.7935 44.9823 17.7792C44.6254 17.765 44.2829 17.7507 43.9403 17.7507C42.6556 17.7507 41.4279 17.9791 40.286 18.4359C39.144 18.8927 38.573 19.8491 38.573 21.2908C38.573 22.5184 38.9585 23.3606 39.7436 23.8174C40.5287 24.2884 41.2995 24.5168 42.056 24.5168C42.9839 24.5168 43.7832 24.2742 44.4399 23.7888C45.0965 23.3035 45.6104 22.7611 45.9815 22.133V22.1901C46.0101 23.746 46.7095 24.5168 48.0799 24.5168C48.608 24.5168 49.1076 24.3884 49.5787 24.1314L49.5502 22.9466C49.3218 23.0465 49.0648 23.1036 48.7793 23.1036C48.1227 23.1036 47.7944 22.6897 47.7944 21.8618V16.3946C47.7944 13.8252 46.424 12.5405 43.6833 12.5405C42.9268 12.5405 42.213 12.6261 41.5421 12.7974C40.8569 12.983 40.2146 13.2685 39.6151 13.6539ZM45.9672 19.9632C45.8959 20.9054 45.5105 21.6619 44.811 22.2043C44.1116 22.7611 43.3693 23.0323 42.5699 23.0323C42.0703 23.0323 41.585 22.8895 41.1282 22.6183C40.6571 22.3471 40.4287 21.8332 40.4287 21.0909C40.4287 20.1916 40.7856 19.6207 41.4708 19.3494C42.1702 19.0782 42.941 18.9498 43.8118 18.9498C44.1972 18.9498 44.5683 18.964 44.9252 19.0069C45.282 19.0354 45.6389 19.064 45.953 19.0782V19.9632H45.9672Z" fill="#292F36"/>
<path d="M56.1016 29.7841V0.57843H67.9066V29.7699H56.1016V29.7841ZM66.6647 20.9482C66.6647 20.0346 66.422 19.3637 65.9367 18.9212C65.4514 18.4787 64.8661 18.1789 64.1524 18.0076C63.4387 17.8363 62.7392 17.6936 62.0398 17.5794C61.3403 17.4652 60.7408 17.2796 60.2555 17.037C59.7701 16.7943 59.5274 16.3661 59.5274 15.7523C59.5274 15.167 59.7558 14.7388 60.2269 14.4533C60.6979 14.1678 61.2832 14.0393 62.0112 14.0393C62.8534 14.0393 63.6385 14.2249 64.3665 14.6103L64.652 16.466L66.1508 16.2804L65.8653 13.5968C65.38 13.297 64.7948 13.0544 64.0953 12.8545C63.3959 12.6547 62.6536 12.5405 61.8542 12.5405C60.7979 12.5405 59.8272 12.7974 58.9279 13.297C58.0286 13.7966 57.5861 14.6531 57.5861 15.8807C57.5861 16.78 57.8288 17.4367 58.3141 17.8506C58.7994 18.2789 59.399 18.5643 60.127 18.7356C60.855 18.9069 61.5687 19.0497 62.2824 19.1782C62.9961 19.2923 63.5957 19.4922 64.081 19.7491C64.5664 20.0061 64.809 20.4486 64.809 21.0909C64.809 21.7476 64.4949 22.2329 63.8669 22.5469C63.2388 22.861 62.5251 23.018 61.7114 23.018C60.7979 23.018 59.9414 22.8324 59.1563 22.447L59.2277 20.9196L57.7859 20.7626L57.4291 23.3749C57.9287 23.7032 58.5853 23.9744 59.3847 24.1885C60.1841 24.4026 60.9834 24.5168 61.7971 24.5168C63.1817 24.5168 64.338 24.2028 65.2658 23.5604C66.1937 22.9466 66.6647 22.0616 66.6647 20.9482Z" fill="#292F36"/>
<path d="M73.7461 29.7841V0.57843H85.5511V29.7699H73.7461V29.7841ZM84.3092 20.9482C84.3092 20.0346 84.0665 19.3637 83.5812 18.9212C83.0958 18.4787 82.5106 18.1789 81.7969 18.0076C81.0831 17.8363 80.3837 17.6936 79.6843 17.5794C78.9848 17.4652 78.3853 17.2796 77.8999 17.037C77.4146 16.7943 77.1719 16.3661 77.1719 15.7523C77.1719 15.167 77.4003 14.7388 77.8714 14.4533C78.3424 14.1678 78.9277 14.0393 79.6557 14.0393C80.4979 14.0393 81.283 14.2249 82.011 14.6103L82.2965 16.466L83.7953 16.2804L83.5098 13.5968C83.0245 13.297 82.4393 13.0544 81.7398 12.8545C81.0403 12.6547 80.2981 12.5405 79.4987 12.5405C78.4424 12.5405 77.4717 12.7974 76.5724 13.297C75.6731 13.7966 75.2306 14.6531 75.2306 15.8807C75.2306 16.78 75.4733 17.4367 75.9586 17.8506C76.444 18.2789 77.0435 18.5643 77.7715 18.7356C78.4995 18.9069 79.2132 19.0497 79.9269 19.1782C80.6406 19.2923 81.2402 19.4922 81.7255 19.7491C82.2108 20.0061 82.4535 20.4486 82.4535 21.0909C82.4535 21.7476 82.1395 22.2329 81.5114 22.5469C80.8834 22.861 80.1696 23.018 79.356 23.018C78.4424 23.018 77.5859 22.8324 76.8008 22.447L76.8722 20.9196L75.4305 20.7626L75.0736 23.3749C75.5732 23.7032 76.2298 23.9744 77.0292 24.1885C77.8286 24.4026 78.628 24.5168 79.4416 24.5168C80.8262 24.5168 81.9825 24.2028 82.9103 23.5604C83.8382 22.9466 84.3092 22.0616 84.3092 20.9482Z" fill="#292F36"/>
<path d="M91.3887 29.7841V0.57843H99.1683V29.7699H91.3887V29.7841ZM92.5306 24.2742H98.3689V22.8039H96.3562V12.7832H92.4878V14.2534H94.5576V22.8039H92.5449V24.2742H92.5306ZM94.3578 7.45876V9.81406H96.3277V7.45876H94.3578Z" fill="#292F36"/>
<path d="M105.008 29.7841V0.57843H117.441V29.7699H105.008V29.7841ZM116.328 20.4058L114.772 20.0632C114.429 22.0045 113.387 22.9752 111.674 22.9752C110.532 22.9752 109.661 22.5898 109.062 21.8189C108.462 21.0481 108.163 19.9632 108.163 18.5929C108.163 17.351 108.434 16.2947 108.962 15.4097C109.49 14.5247 110.375 14.0964 111.603 14.0964C112.545 14.0964 113.373 14.3105 114.058 14.7388L114.5 16.6801L115.999 16.4945L115.557 13.7253C114.971 13.2828 114.358 12.9687 113.715 12.7974C113.073 12.6261 112.373 12.5405 111.617 12.5405C109.833 12.5405 108.477 13.1686 107.591 14.4247C106.692 15.6809 106.25 17.1083 106.25 18.6928C106.25 20.5342 106.721 21.976 107.677 22.9894C108.619 24.0172 109.89 24.5311 111.474 24.5311C113.059 24.5311 114.229 24.0886 114.971 23.2178C115.714 22.3328 116.17 21.405 116.328 20.4058Z" fill="#292F36"/>
<path d="M8.42536 45.7287C8.09705 46.3283 7.6117 46.7993 6.98362 47.1276C6.34127 47.456 5.58471 47.6273 4.69969 47.6273H2.14453V39.5764H4.69969C5.58471 39.5764 6.35554 39.7334 6.98362 40.0618C7.6117 40.3901 8.09705 40.8468 8.42536 41.4607C8.75368 42.0745 8.91069 42.7739 8.91069 43.6018C8.91069 44.4155 8.75368 45.1292 8.42536 45.7287ZM7.01215 45.8858C7.56886 45.3433 7.8401 44.5868 7.8401 43.6018C7.8401 42.6169 7.56886 41.8603 7.01215 41.3179C6.45545 40.7755 5.65607 40.5043 4.59975 40.5043H3.15805V46.6994H4.59975C5.65607 46.6994 6.45545 46.4282 7.01215 45.8858Z" fill="#292F36"/>
<path d="M14.2061 40.4186V43.1736H17.2609V43.973H14.2061V46.7851H17.6035V47.6273H13.1641V39.5764H17.6035V40.4186H14.2061Z" fill="#292F36"/>
<path d="M26.6247 46.5996C26.4391 46.9279 26.1679 47.1991 25.7968 47.3989C25.4256 47.5988 24.9688 47.713 24.4121 47.713C23.884 47.713 23.3986 47.6131 22.9847 47.4275C22.5707 47.2276 22.2424 46.9707 21.9855 46.6281C21.7428 46.2855 21.6 45.9001 21.5572 45.4719H22.6706C22.6992 45.7003 22.7706 45.9287 22.899 46.1428C23.0275 46.3569 23.2273 46.5425 23.47 46.6852C23.7127 46.828 24.0124 46.8993 24.3693 46.8993C24.8261 46.8993 25.183 46.7851 25.4256 46.5282C25.6683 46.2712 25.7968 45.9715 25.7968 45.5861C25.7968 45.2578 25.7111 44.9865 25.5398 44.7867C25.3685 44.5869 25.1544 44.4156 24.9117 44.3014C24.6691 44.1872 24.3122 44.0587 23.884 43.916C23.3701 43.7447 22.9704 43.5876 22.6564 43.4449C22.3423 43.3021 22.0854 43.0738 21.8713 42.774C21.6571 42.4742 21.543 42.0888 21.543 41.6035C21.543 41.1895 21.6429 40.8184 21.8427 40.4901C22.0426 40.176 22.328 39.9191 22.7134 39.7478C23.0846 39.5765 23.5414 39.4908 24.041 39.4908C24.8261 39.4908 25.4684 39.6764 25.9252 40.0618C26.3963 40.4472 26.6532 40.9326 26.7389 41.5321H25.6255C25.5684 41.2181 25.3971 40.9326 25.1401 40.6899C24.8689 40.4472 24.512 40.3188 24.0553 40.3188C23.6413 40.3188 23.2987 40.433 23.0561 40.6471C22.7991 40.8612 22.6849 41.1752 22.6849 41.5607C22.6849 41.8747 22.7706 42.1316 22.9276 42.3172C23.0989 42.517 23.2987 42.6598 23.5414 42.774C23.7841 42.8882 24.1266 43.0024 24.5406 43.1451C25.0545 43.3164 25.4684 43.4734 25.7968 43.6305C26.1108 43.7875 26.382 44.0159 26.5961 44.3156C26.8102 44.6154 26.9245 45.0294 26.9245 45.5433C26.8959 45.9144 26.8103 46.2712 26.6247 46.5996Z" fill="#292F36"/>
<path d="M32.1924 39.5764V47.6273H31.1504V39.5764H32.1924Z" fill="#292F36"/>
<path d="M42.7279 40.1903C43.3703 40.6614 43.7985 41.2895 44.0126 42.0888H42.9135C42.728 41.6035 42.3996 41.2038 41.9571 40.9183C41.5146 40.6186 40.9865 40.4758 40.3727 40.4758C39.8302 40.4758 39.3306 40.6043 38.9023 40.8612C38.4741 41.1182 38.1316 41.475 37.8746 41.9461C37.6319 42.4172 37.5035 42.9739 37.5035 43.6162C37.5035 44.2728 37.6319 44.8438 37.8746 45.3149C38.1173 45.7859 38.4741 46.1571 38.9166 46.414C39.3591 46.671 39.873 46.7994 40.4583 46.7994C40.9579 46.7994 41.4004 46.6852 41.8144 46.4854C42.2283 46.2713 42.5566 45.9572 42.8278 45.5576C43.0991 45.1579 43.2418 44.6725 43.2989 44.1301H40.13V43.3593H44.1696V44.3157C44.0983 44.958 43.8985 45.529 43.5701 46.0572C43.2418 46.5853 42.7993 46.985 42.2426 47.2848C41.6859 47.5845 41.0578 47.7416 40.3441 47.7416C39.5733 47.7416 38.8881 47.5703 38.2885 47.2277C37.689 46.8851 37.2322 46.3998 36.9039 45.7717C36.5756 45.1579 36.4043 44.4441 36.4043 43.6448C36.4043 42.8454 36.5756 42.1317 36.9039 41.5179C37.2322 40.9041 37.7033 40.4044 38.2885 40.0619C38.8738 39.7193 39.559 39.5337 40.3298 39.5337C41.3005 39.5051 42.0856 39.7335 42.7279 40.1903Z" fill="#292F36"/>
<path d="M54.704 47.6273H53.662L49.4795 41.2608V47.6273H48.4375V39.5764H49.4795L53.662 45.9429V39.5764H54.704V47.6273Z" fill="#292F36"/>
<path d="M69.7204 46.5996C69.5348 46.9279 69.2636 47.1991 68.8925 47.3989C68.5213 47.5988 68.0646 47.713 67.5079 47.713C66.9797 47.713 66.4944 47.6131 66.0804 47.4275C65.6665 47.2276 65.3381 46.9707 65.0812 46.6281C64.8385 46.2855 64.6958 45.9001 64.653 45.4719H65.7663C65.7949 45.7003 65.8663 45.9287 65.9948 46.1428C66.1232 46.3569 66.323 46.5425 66.5657 46.6852C66.8084 46.828 67.1081 46.8993 67.465 46.8993C67.9218 46.8993 68.2786 46.7851 68.5213 46.5282C68.764 46.2712 68.8925 45.9715 68.8925 45.5861C68.8925 45.2578 68.8068 44.9865 68.6355 44.7867C68.4642 44.5869 68.2501 44.4156 68.0074 44.3014C67.7648 44.1872 67.408 44.0587 66.9797 43.916C66.4658 43.7447 66.0661 43.5876 65.752 43.4449C65.438 43.3021 65.1811 43.0738 64.967 42.774C64.7528 42.4742 64.6387 42.0888 64.6387 41.6035C64.6387 41.1895 64.7385 40.8184 64.9384 40.4901C65.1382 40.176 65.4238 39.9191 65.8092 39.7478C66.1803 39.5765 66.6371 39.4908 67.1367 39.4908C67.9218 39.4908 68.5642 39.6764 69.021 40.0618C69.492 40.4472 69.749 40.9326 69.8346 41.5321H68.7212C68.6641 41.2181 68.4927 40.9326 68.2358 40.6899C67.9646 40.4472 67.6078 40.3188 67.151 40.3188C66.737 40.3188 66.3944 40.433 66.1518 40.6471C65.8948 40.8612 65.7806 41.1752 65.7806 41.5607C65.7806 41.8747 65.8662 42.1316 66.0233 42.3172C66.1946 42.517 66.3944 42.6598 66.6371 42.774C66.8797 42.8882 67.2223 43.0024 67.6363 43.1451C68.1502 43.3164 68.5641 43.4734 68.8925 43.6305C69.2065 43.7875 69.4777 44.0159 69.6918 44.3156C69.9059 44.6154 70.0201 45.0294 70.0201 45.5433C69.9916 45.9144 69.906 46.2712 69.7204 46.5996Z" fill="#292F36"/>
<path d="M79.1836 39.5764V40.4186H76.9139V47.6273H75.8576V40.4186H73.5879V39.5764H79.1836Z" fill="#292F36"/>
<path d="M84.0369 39.5764V44.4012C84.0369 45.1863 84.2082 45.7716 84.565 46.157C84.9219 46.5281 85.393 46.728 86.0211 46.728C86.6349 46.728 87.1059 46.5424 87.4485 46.157C87.7911 45.7716 87.9624 45.2006 87.9624 44.4155V39.5907H89.0045V44.4155C89.0045 45.5146 88.7332 46.3425 88.1908 46.885C87.6484 47.4417 86.9203 47.7129 86.0068 47.7129C85.1075 47.7129 84.3795 47.4417 83.8371 46.885C83.2947 46.3283 83.0234 45.5146 83.0234 44.4155V39.5907H84.0369V39.5764Z" fill="#292F36"/>
<path d="M99.7534 45.7287C99.4251 46.3283 98.9397 46.7993 98.3117 47.1276C97.6693 47.456 96.9128 47.6273 96.0278 47.6273H93.4727V39.5764H96.0278C96.9128 39.5764 97.6836 39.7334 98.3117 40.0618C98.9397 40.3901 99.4251 40.8468 99.7534 41.4607C100.082 42.0745 100.239 42.7739 100.239 43.6018C100.239 44.4155 100.082 45.1292 99.7534 45.7287ZM98.3545 45.8858C98.9112 45.3433 99.1825 44.5868 99.1825 43.6018C99.1825 42.6169 98.9112 41.8603 98.3545 41.3179C97.7978 40.7755 96.9984 40.5043 95.9421 40.5043H94.5004V46.6994H95.9421C96.9842 46.6994 97.7978 46.4282 98.3545 45.8858Z" fill="#292F36"/>
<path d="M105.55 39.5764V47.6273H104.508V39.5764H105.55Z" fill="#292F36"/>
<path d="M115.77 40.0047C116.37 40.3616 116.841 40.8469 117.183 41.475C117.526 42.1031 117.697 42.8168 117.697 43.6019C117.697 44.387 117.526 45.1007 117.183 45.7288C116.841 46.3569 116.37 46.8422 115.77 47.1991C115.171 47.556 114.5 47.7272 113.757 47.7272C113.015 47.7272 112.33 47.556 111.73 47.1991C111.131 46.8422 110.646 46.3569 110.303 45.7288C109.96 45.1007 109.789 44.387 109.789 43.6019C109.789 42.8168 109.96 42.1031 110.303 41.475C110.646 40.8469 111.117 40.3616 111.73 40.0047C112.344 39.6479 113.015 39.4766 113.757 39.4766C114.5 39.4766 115.171 39.6479 115.77 40.0047ZM112.259 40.8326C111.816 41.0896 111.473 41.4464 111.231 41.9318C110.988 42.4028 110.86 42.9595 110.86 43.6019C110.86 44.23 110.988 44.7867 111.231 45.272C111.473 45.7574 111.816 46.1142 112.259 46.3712C112.701 46.6281 113.186 46.7566 113.743 46.7566C114.285 46.7566 114.785 46.6281 115.228 46.3712C115.67 46.1142 116.013 45.7431 116.255 45.272C116.498 44.801 116.627 44.2443 116.627 43.6162C116.627 42.9738 116.498 42.4171 116.255 41.9461C116.013 41.475 115.67 41.1039 115.228 40.8469C114.785 40.59 114.3 40.4615 113.743 40.4615C113.201 40.4472 112.701 40.5757 112.259 40.8326Z" fill="#292F36"/>
</svg>
