<svg width="145" height="45" viewBox="0 0 145 45" fill="none" xmlns="http://www.w3.org/2000/svg">
<path d="M20.5291 8.95747L21.5997 8.72908C21.8709 8.72908 22.0993 8.78618 22.2563 8.90038C22.4133 9.01457 22.499 9.12877 22.499 9.22869C22.499 9.32861 22.4704 9.48563 22.4276 9.6712C22.3848 9.85677 21.9851 11.7696 21.2428 15.381C20.5006 18.9925 19.9581 21.6904 19.6155 23.4604C21.2714 21.205 23.2127 18.4358 25.4253 15.1383C27.6378 11.8409 28.9368 9.65693 29.308 8.57206C29.4221 8.22947 29.5792 7.97253 29.7647 7.78696C29.9503 7.60139 30.1216 7.4872 30.2643 7.45865C30.4071 7.4301 30.6355 7.40155 30.9352 7.40155C31.235 7.40155 31.5919 7.47292 32.0058 7.6014C32.4198 7.72987 32.6339 7.94398 32.6339 8.25802C32.6339 8.829 31.7774 10.4991 30.0788 13.2398C28.3801 15.9805 26.4245 18.8925 24.2262 21.9758C22.0279 25.0591 20.2008 27.5001 18.7305 29.2987C18.4736 29.6127 18.1453 29.784 17.7741 29.784C17.403 29.784 17.0033 29.7127 16.5893 29.5842C16.1754 29.4557 15.9613 29.2273 15.9613 28.8847C15.9613 27.8141 16.9034 22.6468 18.7876 13.4111C17.1746 15.4952 15.219 18.4072 12.9208 22.1329C10.5226 25.987 9.16658 28.3851 8.85254 29.2987C8.68125 29.8554 8.48141 30.1837 8.25301 30.2694C8.09599 30.3407 7.92469 30.3693 7.7534 30.3693L6.59716 30.4977C6.36877 30.4977 6.16892 30.4406 5.96908 30.3122C5.78351 30.1837 5.68359 30.0552 5.68359 29.9125C5.68359 29.5271 6.22603 28.3566 7.29662 26.4152C8.36721 24.4739 9.63764 22.3613 11.0794 20.0773C12.5211 17.7934 14.0199 15.5809 15.5901 13.4254C17.1603 11.27 18.3737 9.81395 19.2301 9.08595C19.4014 8.92893 19.6013 8.85755 19.8297 8.85755L20.5291 8.95747Z" fill="#292F36"/>
<path d="M37.6867 18.6358C38.429 18.6358 38.8001 18.8927 38.8001 19.3923C38.8001 19.6635 38.743 19.8634 38.6145 19.9918C38.486 20.1203 38.2148 20.5343 37.8009 21.2623C37.3869 21.976 36.9301 22.8896 36.4305 24.0173C35.9309 25.1307 35.6026 26.0871 35.4599 26.8722C35.4313 26.9721 35.417 27.1006 35.417 27.2861C35.417 27.8286 35.5598 28.0855 35.8595 28.0855C36.1593 28.0855 36.5019 27.9428 36.9016 27.6715C37.3013 27.386 37.6581 27.1006 37.9722 26.7722C38.2862 26.4582 38.586 26.1299 38.8857 25.8016C39.1855 25.4733 39.3568 25.2734 39.4139 25.2306C39.471 25.1878 39.5566 25.1592 39.6708 25.1592C39.8564 25.1592 39.9706 25.302 40.0134 25.5875C40.0563 25.8729 40.0705 26.1584 40.0705 26.4725C40.0705 26.7865 40.042 26.9864 39.9849 27.1006C39.6994 27.6573 39.0856 28.3282 38.1149 29.1133C37.1585 29.8984 36.2735 30.2838 35.4884 30.2838C34.7033 30.2838 34.118 30.0411 33.7612 29.57C33.4043 29.099 33.2045 28.5566 33.2045 27.9856C33.2045 27.4003 33.3044 26.9007 33.5042 26.4582C32.6906 27.5145 31.7627 28.3995 30.7207 29.1418C29.6644 29.8698 28.8222 30.241 28.1513 30.241C27.4804 30.241 26.9522 30.0411 26.524 29.6414C25.9816 29.1418 25.7246 28.4566 25.7246 27.5716C25.7246 26.6866 25.9245 25.8016 26.3241 24.9023C26.7238 24.0173 27.2377 23.1893 27.8801 22.4613C28.5224 21.7191 29.2361 21.0482 30.007 20.4486C31.62 19.1782 33.1188 18.5501 34.4892 18.5501C35.0173 18.5501 35.4456 18.6358 35.7739 18.8071C36.1022 18.9783 36.3163 19.2067 36.402 19.4637C36.6304 19.1068 36.8302 18.8927 37.0015 18.7928C37.13 18.6786 37.3726 18.6358 37.6867 18.6358ZM35.7453 20.2631C34.0752 20.2631 32.348 21.1909 30.5637 23.0466C29.9356 23.7175 29.3503 24.5026 28.8079 25.4304C28.2655 26.3583 28.0085 26.9864 28.0085 27.3289C28.0085 27.6715 28.1085 27.8428 28.3083 27.8428C28.5795 27.8428 29.3361 27.3004 30.5922 26.2298C31.8484 25.1592 32.6763 24.3598 33.076 23.846C33.5328 23.275 34.4178 22.0759 35.7453 20.2631Z" fill="#292F36"/>
<path d="M48.7921 10.8988L49.3916 11.0415C49.4773 11.0415 49.5629 11.0844 49.62 11.17C49.6914 11.2557 49.7199 11.3413 49.7199 11.4127C49.7199 11.4841 49.62 11.6982 49.4059 12.0408C49.1918 12.3834 48.9634 12.7688 48.6779 13.197C48.3924 13.6252 48.2496 13.8679 48.2354 13.9107C48.9919 13.8536 49.5344 13.8251 49.8484 13.8251C50.1624 13.8251 50.3765 13.8536 50.505 13.8965C50.6192 13.9393 50.762 14.0678 50.9047 14.2676C51.0617 14.4674 51.1902 14.6245 51.3187 14.7244C51.4471 14.8243 51.5042 14.9813 51.5042 15.1812C51.5042 15.381 51.3758 15.5666 51.1331 15.695C50.8904 15.8378 50.6192 15.9234 50.3337 15.952C48.0641 16.1804 46.8222 16.2946 46.5938 16.3089C45.8087 17.5222 44.6953 19.4064 43.2821 21.9616C41.8689 24.5167 41.1124 26.1297 41.0267 26.7721C40.9839 27.0719 40.9696 27.3002 40.9696 27.4858C40.9696 27.8712 41.1695 28.0568 41.5692 28.0568C41.9689 28.0568 42.4114 27.8998 42.8967 27.6C43.382 27.286 43.8388 26.9577 44.2385 26.6008C45.3376 25.6301 45.9229 25.1305 45.9943 25.1305C46.2512 25.1305 46.3797 25.573 46.3797 26.4438C46.3797 26.9148 46.1656 27.3431 45.7231 27.7285C44.7381 28.5707 43.9102 29.213 43.2393 29.6413C42.5684 30.0695 41.8975 30.2836 41.2123 30.2836C41.0696 30.2836 40.9268 30.2693 40.7983 30.2408C40.0132 30.0981 39.4422 29.8126 39.0854 29.3843C38.7142 28.9561 38.543 28.3851 38.543 27.6714C38.543 26.9577 38.7571 26.0726 39.1853 25.0449C39.6136 24.0171 40.1417 22.918 40.7841 21.7617C41.8404 19.8632 42.8967 18.0932 43.9387 16.4373L43.382 16.5087C42.2543 16.6372 41.5977 16.6943 41.4121 16.6943H41.2837C40.9982 16.6943 40.727 16.6372 40.47 16.523C40.2131 16.4088 40.0703 16.266 40.0703 16.109C40.0703 15.9377 40.1417 15.7807 40.2845 15.6237C40.4272 15.4667 40.5128 15.3382 40.5414 15.2525C40.6128 15.0384 40.8697 14.7958 41.3122 14.5388C41.7547 14.2819 42.0831 14.1391 42.3114 14.1248C42.5398 14.1106 42.7539 14.0963 42.9681 14.082C43.1822 14.0678 43.4106 14.0677 43.6675 14.0535C43.9245 14.0392 44.1243 14.0392 44.267 14.0249L45.5803 13.9678C46.394 12.7402 46.9649 11.9408 47.2647 11.5983C47.5788 11.2414 47.75 11.0558 47.7929 11.0273C47.8357 10.9987 47.9356 10.9702 48.0926 10.9702L48.7921 10.8988Z" fill="#292F36"/>
<path d="M57.5715 25.1592C57.757 25.1592 57.8712 25.3019 57.914 25.5874C57.9569 25.8729 57.9711 26.1584 57.9711 26.4724C57.9711 26.7865 57.9426 26.9863 57.8855 27.1005C57.6 27.6429 56.9862 28.3138 56.0298 29.0989C55.0734 29.884 54.1598 30.2837 53.3034 30.2837C52.7752 30.2837 52.2899 30.1267 51.8331 29.8127C51.3906 29.4986 51.1622 28.9419 51.1622 28.1568C51.1622 27.3717 51.3763 26.5866 51.7903 25.8301C49.3636 28.8706 47.4793 30.3837 46.0947 30.3837C45.5523 30.3837 45.1098 30.1838 44.7672 29.7984C44.4246 29.413 44.2676 29.0133 44.2676 28.5851C44.2676 28.1711 44.3247 27.7429 44.4389 27.3004C44.5531 26.8578 44.6815 26.4582 44.81 26.1013C44.9385 25.7444 45.1383 25.3162 45.3953 24.8023C45.6522 24.2884 45.8521 23.9173 45.9663 23.6746C46.0804 23.432 46.2946 23.0894 46.58 22.6183C46.8655 22.1472 47.2224 21.5049 47.6792 20.7055C48.136 19.9061 48.5071 19.3066 48.8069 18.9212C49.1066 18.5358 49.3921 18.3359 49.6776 18.3359C49.9631 18.3359 50.2058 18.4501 50.4199 18.6785C50.634 18.9069 50.7482 19.1068 50.7482 19.2495C50.7482 19.3923 50.4199 20.0489 49.7633 21.2194C47.8362 24.7167 46.8656 26.7436 46.8656 27.3289C46.8656 27.4716 46.9226 27.543 47.0226 27.543C47.4936 27.543 48.6641 26.5295 50.5198 24.5025C52.3755 22.4756 53.4604 21.1766 53.7601 20.6056C54.0599 20.0346 54.3311 19.5493 54.6166 19.1639C54.8878 18.7785 55.102 18.5358 55.2447 18.4501C55.6587 18.1789 56.2011 18.0362 56.872 18.0076C56.9862 18.0076 57.0576 18.0076 57.1147 18.0219C57.1718 18.0362 57.2431 18.1218 57.3145 18.2646C57.3859 18.4073 57.4287 18.5358 57.4287 18.6357C57.3431 18.9069 56.9576 19.6349 56.2582 20.8197C55.573 22.0045 55.1876 22.6754 55.1162 22.8181C53.96 25.202 53.389 26.7579 53.389 27.4716C53.389 27.8856 53.546 28.0855 53.8601 28.0855C54.431 28.0141 55.1162 27.5573 55.9156 26.7294C56.2154 26.4296 56.5009 26.1156 56.7864 25.8015C57.0718 25.4875 57.2574 25.3019 57.3145 25.2591C57.3859 25.1877 57.4715 25.1592 57.5715 25.1592Z" fill="#292F36"/>
<path d="M61.8106 21.7761C64.1088 19.1639 66.0787 17.8506 67.6917 17.8506C68.0914 17.8506 68.4197 17.9648 68.6767 18.2075C68.9336 18.4502 69.0621 18.7499 69.0621 19.1353C69.0621 19.5207 68.7909 20.1488 68.2484 21.0481C67.706 21.9331 67.2064 22.6897 66.7496 23.3035C66.5069 23.6175 66.2357 23.7746 65.9217 23.7746C65.6219 23.7746 65.3792 23.6604 65.2079 23.432C65.0366 23.2036 64.951 22.9466 64.951 22.6469C64.951 21.976 65.3079 21.2051 66.0359 20.3629L66.0073 20.3344C65.679 20.3629 64.8939 21.0053 63.6092 22.2329C62.3388 23.4748 61.2539 24.5882 60.3546 25.5589C59.4696 26.5438 58.4989 27.7286 57.4426 29.1418C57.1428 29.5557 56.8859 29.7699 56.6718 29.7699C56.4577 29.7699 56.1864 29.6985 55.8438 29.57C55.5013 29.4415 55.2871 29.3416 55.2158 29.2845C55.1444 29.2274 55.1016 29.1275 55.1016 28.9848C55.1016 28.8563 55.1444 28.685 55.2158 28.5137C55.2871 28.3281 55.4442 28.0712 55.644 27.7429C55.8438 27.4146 56.1722 26.8721 56.6004 26.1299C57.0286 25.3876 57.6853 24.2599 58.5846 22.7611C59.4838 21.2622 60.012 20.3487 60.1976 20.0346C60.5687 19.3923 60.8685 18.9212 61.1112 18.6357C61.5537 18.079 62.2959 17.8078 63.338 17.8078C63.5664 17.8078 63.6948 17.9505 63.6948 18.2503C63.6948 18.7071 63.2666 19.5778 62.4244 20.834L61.8106 21.7761Z" fill="#292F36"/>
<path d="M77.556 18.807C77.556 19.4493 77.299 20.0203 76.7709 20.5056C76.2427 20.991 75.6575 21.2336 74.9866 21.2336C74.7724 21.2336 74.6297 21.1765 74.5583 21.0766C74.4869 20.9767 74.4584 20.8339 74.4584 20.6769C74.4584 20.5199 74.4727 20.3486 74.5155 20.1916C74.1586 20.3058 73.7732 20.4914 73.345 20.734C72.9167 20.9767 72.3886 21.3336 71.7605 21.8189C71.1324 22.3042 70.8184 22.6468 70.8184 22.8895C70.8184 22.9609 70.9326 23.0037 71.161 23.0037C71.3894 23.0037 71.7462 22.918 72.2173 22.761C72.6884 22.604 73.0309 22.5183 73.2165 22.5183C73.4021 22.5183 73.5305 22.5326 73.5876 22.5469C73.7161 22.6183 73.8446 22.761 74.0016 22.9894C74.1444 23.2178 74.2157 23.4034 74.2157 23.5318C74.2157 23.6603 74.0873 23.8316 73.8303 24.0457C73.5734 24.2598 73.2879 24.4169 72.9738 24.531C72.6455 24.6452 72.4314 24.7309 72.3315 24.788C70.276 25.9442 69.2482 26.7293 69.2482 27.1576C69.2482 27.9141 69.8905 28.2995 71.1895 28.2995C72.0175 28.2995 72.8596 28.0426 73.6876 27.5144C74.4013 27.0719 75.0437 26.6151 75.6146 26.1441C76.1856 25.6873 76.5425 25.4018 76.6995 25.2876C76.8565 25.1734 76.9707 25.1306 77.0421 25.1306C77.299 25.1306 77.4275 25.4161 77.4275 25.9871C77.4275 26.558 77.399 26.9292 77.3276 27.1005C77.2562 27.286 77.0706 27.5002 76.7423 27.7714C74.6582 29.47 72.6741 30.3265 70.8184 30.3265C69.8192 30.3265 69.0341 30.1838 68.4345 29.9125C67.3354 29.4129 66.793 28.6564 66.793 27.6286C66.793 26.2868 67.7208 25.259 69.5908 24.5739C69.2196 24.4026 68.977 24.2027 68.8771 23.9315C68.7629 23.6746 68.72 23.2606 68.72 22.6896C68.72 22.1186 68.9913 21.5191 69.5194 20.8768C70.0476 20.2344 70.7042 19.7063 71.475 19.3066C73.188 18.3787 74.7296 17.9219 76.0714 17.9219C76.3997 17.9219 76.7138 17.9933 77.0564 18.1503C77.399 18.3073 77.556 18.5215 77.556 18.807Z" fill="#292F36"/>
<path d="M110.873 8.87192H111.059C111.116 8.87192 111.159 8.87192 111.173 8.88619C111.187 8.90046 111.202 8.90047 111.23 8.91474C111.259 8.91474 111.273 8.92901 111.302 8.95756C111.345 9.00039 111.416 9.04321 111.502 9.08603C111.616 9.17168 111.673 9.2716 111.673 9.3858C111.673 9.5 111.559 9.74266 111.33 10.1138C111.102 10.4849 110.517 11.3842 109.56 12.8402C107.376 16.1805 105.421 19.2923 103.693 22.1472C100.71 27.1148 99.1969 29.6128 99.1683 29.6414C99.1398 29.6699 99.1255 29.6985 99.1112 29.727C99.0969 29.7841 99.0684 29.8127 98.997 29.8127L98.7972 29.7698L98.3975 29.8698L98.1691 29.8269L97.9264 29.8698H97.8408L97.0271 29.984C96.5418 29.984 96.2991 29.8127 96.2991 29.4843C96.2991 29.3416 96.3419 29.1703 96.4276 28.9705C96.7274 28.2567 98.2548 25.673 100.995 21.1908C99.1969 21.2337 97.4125 21.2622 95.6568 21.2622L92.5164 21.2479C92.0025 22.0759 91.2888 23.2464 90.3895 24.7737C88.4481 28.0997 87.4204 29.7698 87.2919 29.7984C87.1634 29.8269 87.0635 29.8555 86.9779 29.8555C86.8922 29.8555 86.8208 29.8127 86.7638 29.7127C86.6924 29.6271 86.6495 29.57 86.621 29.57C86.5924 29.57 86.5496 29.5843 86.464 29.6271C86.3926 29.6699 86.2784 29.6842 86.1214 29.6842L85.7788 29.6699L85.6503 29.5843C85.6361 29.5843 85.6218 29.5985 85.6075 29.6271C85.5932 29.6556 85.5504 29.6699 85.4933 29.6699C85.0794 29.6699 84.8652 29.4986 84.8652 29.1418C84.8652 28.9134 84.9509 28.5993 85.1079 28.2139C85.2792 27.8285 85.4933 27.4145 85.7645 26.972C86.0358 26.5295 86.7209 25.4589 87.8486 23.7888C88.962 22.1187 89.5187 21.2765 89.5187 21.2622C89.3332 21.2479 89.119 21.2479 88.8764 21.2337C88.3768 21.2337 88.0342 21.2194 87.8201 21.1766C87.2633 21.0766 86.8779 20.6199 86.6781 19.8062C86.5639 19.4065 86.5211 19.1496 86.5354 19.0211C86.5354 18.7642 86.6496 18.6214 86.8779 18.6214L87.2633 18.7213C87.4632 18.7356 87.92 18.7499 88.6623 18.7927C89.4045 18.8355 89.9327 18.8498 90.261 18.8498L91.0889 18.8213C92.3594 16.8371 93.8725 14.5817 95.6425 12.0694C94.3578 13.1257 92.9304 13.6539 91.3602 13.6539C90.6179 13.6539 89.9755 13.4826 89.4473 13.1257C88.9049 12.7689 88.648 12.3121 88.648 11.7696C88.648 11.2272 88.8478 10.799 89.2618 10.4707C89.6758 10.1566 90.0612 9.9996 90.4323 9.9996C90.8034 9.9996 90.989 10.0567 90.989 10.1709C90.989 10.2137 90.9319 10.2565 90.832 10.2994C90.7321 10.3565 90.675 10.3993 90.675 10.4421C90.675 10.5991 90.8463 10.7419 91.1888 10.8561C91.5314 10.9703 91.9168 11.0416 92.3451 11.0416C92.7733 11.0416 93.2872 10.9132 93.9153 10.6705C94.5434 10.4278 95.1857 10.0995 95.8566 9.71411C96.7987 9.17168 97.541 8.71489 98.0834 8.35803C98.3975 8.20101 98.683 8.12964 98.9685 8.12964C99.254 8.12964 99.4395 8.15819 99.568 8.22956C99.6965 8.28666 99.7821 8.35803 99.8392 8.41513C99.8963 8.47223 99.9677 8.55788 100.025 8.6578C100.096 8.75772 100.153 8.84337 100.225 8.88619C100.282 8.94329 100.325 9.00039 100.325 9.07176C100.325 9.14313 100.282 9.24305 100.21 9.40007C100.139 9.54282 99.7679 10.1423 99.0969 11.1844C98.426 12.2264 97.5553 13.554 96.499 15.167C95.4427 16.78 94.6718 17.9648 94.1865 18.7356C96.7987 18.7356 99.6108 18.6928 102.637 18.5929C106.32 12.7831 108.261 9.74266 108.461 9.45717C108.661 9.17168 108.846 8.98611 109.018 8.90046C109.189 8.81482 109.389 8.77199 109.632 8.77199L110.873 8.87192Z" fill="#292F36"/>
<path d="M115.641 18.6071C115.94 18.6071 116.24 18.7356 116.54 19.0068C116.854 19.278 116.997 19.6777 116.997 20.2202C116.997 20.7626 116.811 21.462 116.426 22.3328C116.04 23.1893 115.526 24.0743 114.856 24.9736C114.199 25.8586 113.457 26.7008 112.672 27.4859C111.872 28.271 111.016 28.9133 110.102 29.413C109.174 29.9126 108.346 30.1695 107.59 30.1695C106.833 30.1695 106.234 29.9268 105.777 29.4558C105.32 28.9847 105.092 28.3281 105.092 27.4859C105.092 26.6437 105.306 25.7016 105.72 24.6881C106.134 23.6603 106.662 22.761 107.319 21.9759C107.975 21.1908 108.675 20.4914 109.446 19.8633C111.03 18.5786 112.429 17.9505 113.628 17.9505C114.17 17.9505 114.57 18.079 114.841 18.3502C114.941 18.4358 114.984 18.5215 114.984 18.5786V18.6642C115.141 18.6071 115.355 18.6071 115.641 18.6071ZM114.17 20.5485H114.07C113.728 20.5485 113.557 20.3058 113.557 19.8062C112.843 20.0346 112.101 20.4485 111.315 21.0338C110.53 21.6191 109.831 22.3185 109.217 23.1179C107.961 24.7166 107.333 26.0727 107.319 27.1719C107.319 27.7143 107.518 27.9855 107.918 27.9855C108.318 27.9855 108.917 27.7143 109.702 27.2004C110.488 26.6865 111.273 25.93 112.058 24.945C112.829 23.9744 113.414 23.1179 113.799 22.4042C114.185 21.6904 114.385 21.2051 114.385 20.9339C114.37 20.6769 114.299 20.5485 114.17 20.5485Z" fill="#292F36"/>
<path d="M116.682 29.8412L115.968 29.8126H115.711C115.611 29.7841 115.511 29.727 115.397 29.6413C115.283 29.5557 115.197 29.4843 115.14 29.4557C115.083 29.4272 115.055 29.3415 115.055 29.2416C115.055 29.1417 115.098 28.9561 115.169 28.7135C117.067 24.531 118.909 21.1765 120.693 18.6785C120.893 18.4073 121.207 18.1931 121.635 18.0504C122.063 17.9076 122.492 17.8363 122.906 17.8363C123.148 17.8363 123.277 18.0218 123.277 18.4073C123.277 18.5214 123.234 18.6642 123.163 18.8355C123.091 19.0211 122.891 19.3065 122.577 19.7205C122.263 20.1345 121.892 20.6055 121.464 21.1194C121.036 21.6333 120.793 21.9473 120.736 22.033C122.078 20.6484 123.277 19.6206 124.362 18.9354C125.447 18.2645 126.217 17.9219 126.703 17.9219C127.188 17.9219 127.559 18.0647 127.816 18.3359C128.073 18.6071 128.202 18.9069 128.202 19.2209C128.202 19.5349 128.173 19.8062 128.13 20.006C128.087 20.2201 128.002 20.4342 127.888 20.6626C127.773 20.891 127.673 21.0909 127.588 21.2479C127.502 21.4049 127.359 21.619 127.174 21.876C126.974 22.1329 126.845 22.3185 126.774 22.4184C126.703 22.5183 126.546 22.7039 126.317 22.9751C126.089 23.2463 125.96 23.4033 125.946 23.4319C126.217 23.1607 126.603 22.761 127.088 22.2186C127.573 21.6761 127.987 21.2336 128.33 20.8768C128.673 20.5199 129.087 20.1059 129.6 19.6491C130.114 19.1924 130.585 18.8212 131.014 18.55C132.07 17.8934 133.141 17.5508 134.225 17.5508C134.597 17.5508 134.911 17.665 135.168 17.9076C135.424 18.1503 135.553 18.4215 135.553 18.7498C135.553 19.0782 135.153 19.8633 134.368 21.0909C133.583 22.3185 132.784 23.5604 131.999 24.8022C131.213 26.0441 130.814 26.8292 130.814 27.1575C130.814 27.6001 130.899 27.8713 131.056 27.9569C131.228 28.0426 131.428 28.0711 131.656 28.0568C131.884 28.0426 132.227 27.8855 132.641 27.6001C133.069 27.3146 133.44 27.0291 133.769 26.715C134.311 26.2297 134.796 25.7586 135.267 25.3019C135.367 25.2162 135.467 25.1734 135.596 25.1734C135.781 25.1734 135.896 25.3161 135.938 25.6016C135.981 25.8871 135.995 26.1726 135.995 26.4866C135.995 26.8007 135.967 27.0005 135.91 27.1147C135.624 27.6572 134.996 28.3281 134.04 29.1274C133.069 29.9125 132.141 30.3122 131.256 30.3122C131.142 30.3122 131.071 30.3122 131.028 30.2979C130.029 30.198 129.329 29.9268 128.944 29.47C128.558 29.0132 128.373 28.4708 128.373 27.857C128.373 27.2432 128.587 26.4724 129.015 25.5873C129.443 24.7023 129.9 23.8887 130.414 23.1749C130.928 22.4612 131.385 21.8046 131.813 21.2193C132.241 20.6341 132.455 20.32 132.455 20.2772C132.455 20.2344 132.413 20.2058 132.341 20.2058C132.041 20.2058 131.37 20.6912 130.314 21.6761C128.53 23.3462 126.988 24.9593 125.689 26.5009C125.347 26.9149 124.533 27.9426 123.263 29.6128C123.12 29.8126 122.877 29.9125 122.563 29.9125C122.249 29.9125 121.921 29.8554 121.578 29.727C121.236 29.5985 121.064 29.4415 121.064 29.2559C121.064 29.156 121.835 27.7856 123.391 25.1448C124.947 22.504 125.718 21.0623 125.718 20.8339C125.718 20.5913 125.575 20.4771 125.29 20.4771C125.004 20.4771 124.405 20.9053 123.505 21.7618C121.036 24.1171 119.123 26.4724 117.767 28.7991C117.681 28.9419 117.51 29.156 117.253 29.4415C116.996 29.727 116.768 29.8412 116.682 29.8412Z" fill="#292F36"/>
<path d="M144.99 18.807C144.99 19.4493 144.733 20.0203 144.204 20.5056C143.676 20.991 143.091 21.2336 142.42 21.2336C142.206 21.2336 142.063 21.1765 141.992 21.0766C141.921 20.9767 141.892 20.8339 141.892 20.6769C141.892 20.5199 141.906 20.3486 141.949 20.1916C141.592 20.3058 141.207 20.4914 140.779 20.734C140.35 20.9767 139.822 21.3336 139.194 21.8189C138.566 22.3042 138.252 22.6468 138.252 22.8895C138.252 22.9609 138.366 23.0037 138.595 23.0037C138.823 23.0037 139.18 22.918 139.651 22.761C140.122 22.604 140.465 22.5183 140.65 22.5183C140.836 22.5183 140.964 22.5326 141.021 22.5469C141.15 22.6183 141.278 22.761 141.435 22.9894C141.578 23.2178 141.649 23.4034 141.649 23.5318C141.649 23.6603 141.521 23.8316 141.264 24.0457C141.007 24.2598 140.721 24.4169 140.407 24.531C140.079 24.6452 139.865 24.7309 139.765 24.788C137.71 25.9442 136.682 26.7293 136.682 27.1576C136.682 27.9141 137.324 28.2995 138.623 28.2995C139.451 28.2995 140.293 28.0426 141.121 27.5144C141.835 27.0719 142.477 26.6151 143.048 26.1441C143.619 25.6873 143.976 25.4018 144.133 25.2876C144.29 25.1734 144.404 25.1306 144.476 25.1306C144.733 25.1306 144.861 25.4161 144.861 25.9871C144.861 26.558 144.833 26.9292 144.761 27.1005C144.69 27.286 144.504 27.5002 144.176 27.7714C142.092 29.47 140.108 30.3265 138.252 30.3265C137.253 30.3265 136.468 30.1838 135.868 29.9125C134.769 29.4129 134.227 28.6564 134.227 27.6286C134.227 26.2868 135.154 25.259 137.024 24.5739C136.653 24.4026 136.411 24.2027 136.311 23.9315C136.196 23.6746 136.154 23.2606 136.154 22.6896C136.154 22.1186 136.425 21.5191 136.953 20.8768C137.481 20.2344 138.138 19.7063 138.909 19.3066C140.622 18.3787 142.163 17.9219 143.505 17.9219C143.833 17.9219 144.147 17.9933 144.49 18.1503C144.833 18.3073 144.99 18.5215 144.99 18.807Z" fill="#292F36"/>
<path d="M0.287109 33.7952C4.04131 35.3654 7.86688 36.5787 11.7638 37.5066C15.6322 38.4772 19.572 39.1624 23.5118 39.5906C25.4817 39.8618 27.4658 39.8904 29.4214 40.076C31.4056 40.0902 33.3755 40.2473 35.3454 40.1331L38.3002 40.0617C39.2851 40.0474 40.2701 39.919 41.255 39.8619C42.24 39.7762 43.2249 39.7334 44.1956 39.6049L47.1219 39.1909C51.0474 38.7627 54.8587 37.8491 58.6557 36.75C62.4955 35.6937 66.1213 34.2948 69.9611 32.8388C73.8866 31.397 78.1404 30.4549 82.4513 30.9117C84.5782 31.1829 86.7194 31.8681 88.4609 33.1243C90.2167 34.3662 91.4728 36.1362 92.2722 37.9919C91.0732 36.336 89.5743 34.98 87.8471 34.1378C86.1199 33.2956 84.2214 32.953 82.3371 33.0101C78.5258 33.0672 74.7716 34.3376 71.2458 35.9364C67.6629 37.7064 63.7802 39.3051 59.869 40.6327C55.9292 41.9031 51.861 42.9166 47.7356 43.4305C39.5278 44.5154 31.1201 44.5296 23.0122 42.8881C18.9439 42.1458 14.9756 40.9895 11.1357 39.5193C7.32444 37.9919 3.5988 36.2076 0.287109 33.7952Z" fill="#292F36"/>
<path d="M136.794 10.0281C133.611 8.67204 130.37 7.61572 127.087 6.7878C123.818 5.91705 120.507 5.30325 117.181 4.87502C115.525 4.61807 113.84 4.56098 112.185 4.36113C110.514 4.31831 108.859 4.14701 107.188 4.21839C106.361 4.23266 105.518 4.23266 104.69 4.21839C103.862 4.21839 103.02 4.30403 102.192 4.33258C101.364 4.38968 100.522 4.40396 99.6943 4.4896L97.2105 4.78937C93.8846 5.06058 90.6585 5.74576 87.4325 6.58796C84.1636 7.37306 81.0661 8.48647 77.7686 9.59989C74.3856 10.7276 70.717 11.4128 67.0342 10.8989C65.2213 10.5991 63.3942 9.95675 61.9524 8.81479C60.4822 7.6871 59.4829 6.14545 58.8691 4.53242C59.8826 5.9456 61.1388 7.10184 62.5805 7.81557C64.0223 8.5293 65.6067 8.82906 67.1912 8.81479C70.3887 8.81479 73.5576 7.78702 76.5553 6.50231C79.61 5.04631 82.9646 3.7616 86.3048 2.70529C89.6736 1.69179 93.1851 0.920968 96.6967 0.549831C103.705 -0.192445 110.871 -0.0211512 117.737 1.60615C121.177 2.33415 124.532 3.44756 127.744 4.81792C130.97 6.21682 134.082 7.84412 136.794 10.0281Z" fill="#292F36"/>
</svg>
